<svg width="18" height="18" viewBox="0 0 18 18" fill="none" xmlns="http://www.w3.org/2000/svg">
<path d="M9 17.25C4.44365 17.25 0.75 13.5563 0.75 9C0.75 4.44365 4.44365 0.75 9 0.75C13.5563 0.75 17.25 4.44365 17.25 9V11C17.25 12.2426 16.2426 13.25 15 13.25C13.7574 13.25 12.75 12.2426 12.75 11M13.25 9C13.25 11.3472 11.3472 13.25 9 13.25C6.65279 13.25 4.75 11.3472 4.75 9C4.75 6.65279 6.65279 4.75 9 4.75C11.3472 4.75 13.25 6.65279 13.25 9Z" stroke="white" stroke-width="1.5" stroke-linecap="round" stroke-linejoin="round"/>
</svg>
