<svg width="24" height="24" viewBox="0 0 24 24" fill="none" xmlns="http://www.w3.org/2000/svg">
<path d="M9.54004 15.92V10.5801L8.04004 12.2501" stroke="#121212" stroke-width="1.5" stroke-linecap="round" stroke-linejoin="round"/>
<path d="M10.0195 4.46997L11.9995 2" stroke="#121212" stroke-width="1.5" stroke-linecap="round" stroke-linejoin="round"/>
<path d="M4.91037 7.79999C3.80037 9.27999 3.11035 11.11 3.11035 13.11C3.11035 18.02 7.09037 22 12.0004 22C16.9104 22 20.8904 18.02 20.8904 13.11C20.8904 8.19999 16.9104 4.21997 12.0004 4.21997C11.3204 4.21997 10.6604 4.31002 10.0204 4.46002" stroke="#121212" stroke-width="1.5" stroke-linecap="round" stroke-linejoin="round"/>
<path d="M14 10.5801C15.1 10.5801 16 11.4801 16 12.5801V13.9301C16 15.0301 15.1 15.9301 14 15.9301C12.9 15.9301 12 15.0301 12 13.9301V12.5801C12 11.4701 12.9 10.5801 14 10.5801Z" stroke="#121212" stroke-width="1.5" stroke-linecap="round" stroke-linejoin="round"/>
</svg>
