<svg width="24" height="25" viewBox="0 0 24 25" fill="none" xmlns="http://www.w3.org/2000/svg">
<path d="M9.54004 16.3046V10.9646L8.04004 12.6346" stroke="white" stroke-width="1.5" stroke-linecap="round" stroke-linejoin="round"/>
<path d="M10.02 4.85461L12 2.38464" stroke="white" stroke-width="1.5" stroke-linecap="round" stroke-linejoin="round"/>
<path d="M4.90988 8.18463C3.79988 9.66463 3.10986 11.4946 3.10986 13.4946C3.10986 18.4046 7.08988 22.3846 11.9999 22.3846C16.9099 22.3846 20.8899 18.4046 20.8899 13.4946C20.8899 8.58463 16.9099 4.60461 11.9999 4.60461C11.3199 4.60461 10.6599 4.69467 10.0199 4.84467" stroke="white" stroke-width="1.5" stroke-linecap="round" stroke-linejoin="round"/>
<path d="M14 10.9646C15.1 10.9646 16 11.8646 16 12.9646V14.3146C16 15.4146 15.1 16.3146 14 16.3146C12.9 16.3146 12 15.4146 12 14.3146V12.9646C12 11.8546 12.9 10.9646 14 10.9646Z" stroke="white" stroke-width="1.5" stroke-linecap="round" stroke-linejoin="round"/>
</svg>
