<svg width="20" height="20" viewBox="0 0 20 20" fill="none" xmlns="http://www.w3.org/2000/svg">
<g clip-path="url(#clip0_1272_17157)">
<ellipse cx="10" cy="10" rx="10" ry="10" fill="#F3BA2F"/>
<path d="M7.41048 8.9358L9.99992 6.34635L12.5906 8.93692L14.0973 7.43025L9.99992 3.33301L5.90392 7.42902L7.41053 8.9357L7.41048 8.9358ZM3.33325 9.9997L4.83997 8.49276L6.34658 9.99938L4.83987 11.5061L3.33325 9.9997ZM7.41048 11.0638L9.99992 13.653L12.5905 11.0625L14.098 12.5684L14.0973 12.5692L9.99992 16.6664L5.90392 12.5704L5.90179 12.5682L7.41064 11.0636L7.41048 11.0638ZM13.6533 10.0003L15.16 8.49361L16.6666 10.0002L15.1599 11.507L13.6533 10.0003Z" fill="#251C49"/>
<path d="M11.528 9.99862H11.5286L9.99987 8.46973L8.86989 9.59941L8.74008 9.72928L8.47235 9.99707L8.47021 9.99915L8.47235 10.0013L9.99987 11.5291L11.5287 10.0002L11.5295 9.99937L11.5281 9.99862" fill="#251C49"/>
</g>
<defs>
<clipPath id="clip0_1272_17157">
<rect width="20" height="20" fill="white"/>
</clipPath>
</defs>
</svg>
