<svg width="24" height="24" viewBox="0 0 24 24" fill="none" xmlns="http://www.w3.org/2000/svg">
<path opacity="0.4" d="M22 15.7C22 15.69 21.99 15.68 21.98 15.67C21.94 15.61 21.89 15.55 21.84 15.5C21.83 15.49 21.82 15.47 21.81 15.46C21 14.56 19.81 14 18.5 14C17.24 14 16.09 14.52 15.27 15.36C14.48 16.17 14 17.28 14 18.5C14 19.34 14.24 20.14 14.65 20.82C14.87 21.19 15.15 21.53 15.47 21.81C15.49 21.82 15.5 21.83 15.51 21.84C15.56 21.89 15.61 21.93 15.67 21.98C15.67 21.98 15.67 21.98 15.68 21.98C15.69 21.99 15.7 22 15.71 22C16.46 22.63 17.43 23 18.5 23C20.14 23 21.57 22.12 22.35 20.82C22.58 20.43 22.76 20 22.87 19.55C22.96 19.21 23 18.86 23 18.5C23 17.44 22.63 16.46 22 15.7ZM20.18 19.23H19.25V20.2C19.25 20.61 18.91 20.95 18.5 20.95C18.09 20.95 17.75 20.61 17.75 20.2V19.23H16.82C16.41 19.23 16.07 18.89 16.07 18.48C16.07 18.07 16.41 17.73 16.82 17.73H17.75V16.84C17.75 16.43 18.09 16.09 18.5 16.09C18.91 16.09 19.25 16.43 19.25 16.84V17.73H20.18C20.59 17.73 20.93 18.07 20.93 18.48C20.93 18.89 20.6 19.23 20.18 19.23Z" fill="#BB022A"/>
<path d="M19.35 5.65995L13.06 2.27C12.4 1.91 11.6 1.91 10.93 2.27L4.64 5.65995C4.18 5.90995 3.89999 6.39998 3.89999 6.93998C3.89999 7.47998 4.18 7.96995 4.64 8.21995L10.93 11.61C11.26 11.79 11.63 11.88 11.99 11.88C12.35 11.88 12.72 11.79 13.05 11.61L19.34 8.21995C19.8 7.96995 20.08 7.47998 20.08 6.93998C20.1 6.39998 19.81 5.90995 19.35 5.65995Z" fill="#BB022A"/>
<path d="M9.89999 12.79L4.05 9.86001C3.6 9.63001 3.07999 9.66001 2.64999 9.92001C2.21999 10.18 1.97 10.64 1.97 11.14V16.67C1.97 17.63 2.5 18.49 3.36 18.92L9.21001 21.8401C9.41001 21.9401 9.63001 21.99 9.85001 21.99C10.11 21.99 10.37 21.92 10.6 21.77C11.03 21.51 11.28 21.05 11.28 20.55V15.02C11.29 14.08 10.76 13.22 9.89999 12.79Z" fill="#BB022A"/>
<path d="M22.03 11.15V15.74C22.02 15.73 22.01 15.71 22 15.7C22 15.69 21.99 15.68 21.98 15.67C21.94 15.61 21.89 15.55 21.84 15.5C21.83 15.49 21.82 15.47 21.81 15.46C21 14.56 19.81 14 18.5 14C17.24 14 16.09 14.52 15.27 15.36C14.48 16.17 14 17.28 14 18.5C14 19.34 14.24 20.14 14.65 20.82C14.82 21.11 15.03 21.37 15.26 21.61L14.79 21.85C14.59 21.95 14.37 22 14.15 22C13.89 22 13.63 21.93 13.39 21.78C12.97 21.52 12.71 21.06 12.71 20.56V15.04C12.71 14.08 13.24 13.22 14.1 12.79L19.95 9.87C20.4 9.64 20.92 9.66 21.35 9.93C21.77 10.19 22.03 10.65 22.03 11.15Z" fill="#BB022A"/>
</svg>
