<svg width="137" height="72" viewBox="0 0 137 72" fill="none" xmlns="http://www.w3.org/2000/svg">
<path d="M1 34.25L17.4135 43.905C17.8033 44.1343 18.2177 44.3187 18.6488 44.4549L32.7191 48.8982C35.2572 49.6996 38.0198 48.7333 39.505 46.5246L53.0221 26.4223C54.9211 23.5981 58.7863 22.9171 61.5362 24.9222L76.4586 35.8032C78.7995 37.5101 82.0258 37.3005 84.1262 35.3051L89.4092 30.2863C90.1253 29.606 90.9983 29.113 91.9507 28.851L109.265 24.0896C110.079 23.8657 110.837 23.4726 111.489 22.9359L136 2.75" stroke="#FFE38F"/>
<path d="M17.7068 44.0775L5.52106 36.9094C3.52116 35.733 1 37.175 1 39.4953V68.6939C1 70.3725 2.37725 71.7245 4.05555 71.6934L133.056 69.3045C134.69 69.2743 136 67.9402 136 66.305V9.10695C136 6.57159 133.05 5.17942 131.093 6.79116L110.994 23.343C110.668 23.6113 110.29 23.8079 109.883 23.9198L91.2254 29.0505C90.7492 29.1815 90.3127 29.428 89.9546 29.7681L82.3131 37.0276C81.2629 38.0253 79.6498 38.13 78.4793 37.2766L59.0181 23.0861C57.6432 22.0836 55.7105 22.4241 54.761 23.8361L38.2525 48.3873C37.5099 49.4917 36.1286 49.9748 34.8596 49.5741L18.3244 44.3525C18.1088 44.2844 17.9016 44.1921 17.7068 44.0775Z" fill="url(#paint0_linear_1109_29610)"/>
<defs>
<linearGradient id="paint0_linear_1109_29610" x1="68.5" y1="2.75" x2="68.5" y2="71.75" gradientUnits="userSpaceOnUse">
<stop stop-color="#77F884" stop-opacity="0.11"/>
<stop offset="1" stop-color="#FFE6EB" stop-opacity="0"/>
</linearGradient>
</defs>
</svg>
