<svg width="133" height="66" viewBox="0 0 133 66" fill="none" xmlns="http://www.w3.org/2000/svg">
<path d="M1 34.25L13.1116 41.3744C15.8547 42.9881 19.3806 42.1791 21.146 39.531L31.0866 24.6201C33.138 21.543 37.4578 21.0363 40.1655 23.5552L51.4578 34.0596C54.1232 36.539 58.3647 36.0929 60.4558 33.113L71.7075 17.0793C74.063 13.7227 79.0166 13.6654 81.4492 16.9667L85.9356 23.0554C88.2529 26.2004 92.9099 26.3274 95.3952 23.3133L108.315 7.64457C111.028 4.35431 116.211 4.86515 118.23 8.62176L132 34.25" stroke="#FD2654"/>
<path d="M13.1116 41.3744L1 34.25V59.25C1 62.5637 3.68629 65.25 7 65.25H126C129.314 65.25 132 62.5637 132 59.25V35.7599C132 34.7687 131.754 33.793 131.285 32.92L118.23 8.62176C116.211 4.86515 111.028 4.35431 108.315 7.64457L95.3951 23.3133C92.9099 26.3274 88.2529 26.2004 85.9356 23.0554L81.4492 16.9667C79.0166 13.6654 74.063 13.7227 71.7075 17.0793L60.4558 33.113C58.3647 36.0929 54.1232 36.539 51.4578 34.0596L40.1655 23.5552C37.4578 21.0363 33.138 21.543 31.0866 24.6201L21.146 39.531C19.3806 42.1791 15.8547 42.9881 13.1116 41.3744Z" fill="url(#paint0_linear_1065_63794)"/>
<defs>
<linearGradient id="paint0_linear_1065_63794" x1="66.5" y1="0.75" x2="66.5" y2="65.25" gradientUnits="userSpaceOnUse">
<stop stop-color="#F87793" stop-opacity="0.11"/>
<stop offset="1" stop-color="#FFE6EB" stop-opacity="0"/>
</linearGradient>
</defs>
</svg>
