<svg width="18" height="18" viewBox="0 0 18 18" fill="none" xmlns="http://www.w3.org/2000/svg">
<path d="M8.25 1.5H6.75C3 1.5 1.5 3 1.5 6.75V11.25C1.5 15 3 16.5 6.75 16.5H11.25C15 16.5 16.5 15 16.5 11.25V9.75" stroke="#F6F4F4" stroke-width="1.5" stroke-linecap="round" stroke-linejoin="round"/>
<path d="M12.0299 2.26592L6.11991 8.17592C5.89491 8.40092 5.66991 8.84342 5.62491 9.16592L5.30241 11.4234C5.18241 12.2409 5.75991 12.8109 6.57741 12.6984L8.83491 12.3759C9.14991 12.3309 9.59241 12.1059 9.82491 11.8809L15.7349 5.97092C16.7549 4.95092 17.2349 3.76592 15.7349 2.26592C14.2349 0.765922 13.0499 1.24592 12.0299 2.26592Z" stroke="#F6F4F4" stroke-width="1.5" stroke-miterlimit="10" stroke-linecap="round" stroke-linejoin="round"/>
<path d="M11.1826 3.11328C11.6851 4.90578 13.0876 6.30828 14.8876 6.81828" stroke="#F6F4F4" stroke-width="1.5" stroke-miterlimit="10" stroke-linecap="round" stroke-linejoin="round"/>
</svg>
