<svg width="18" height="18" viewBox="0 0 18 18" fill="none" xmlns="http://www.w3.org/2000/svg">
<path d="M8.25 1.5H6.75C3 1.5 1.5 3 1.5 6.75V11.25C1.5 15 3 16.5 6.75 16.5H11.25C15 16.5 16.5 15 16.5 11.25V9.75" stroke="#1F1417" stroke-width="1.5" stroke-linecap="round" stroke-linejoin="round"/>
<path d="M12.03 2.26592L6.12003 8.17592C5.89503 8.40092 5.67003 8.84342 5.62503 9.16592L5.30253 11.4234C5.18253 12.2409 5.76003 12.8109 6.57753 12.6984L8.83503 12.3759C9.15003 12.3309 9.59253 12.1059 9.82503 11.8809L15.735 5.97092C16.755 4.95092 17.235 3.76592 15.735 2.26592C14.235 0.765922 13.05 1.24592 12.03 2.26592Z" stroke="#1F1417" stroke-width="1.5" stroke-miterlimit="10" stroke-linecap="round" stroke-linejoin="round"/>
<path d="M11.1825 3.11328C11.685 4.90578 13.0875 6.30828 14.8875 6.81828" stroke="#1F1417" stroke-width="1.5" stroke-miterlimit="10" stroke-linecap="round" stroke-linejoin="round"/>
</svg>
