<svg width="20" height="20" viewBox="0 0 20 20" fill="none" xmlns="http://www.w3.org/2000/svg">
<path d="M10 18.25C5.44365 18.25 1.75 14.5563 1.75 10C1.75 5.44365 5.44365 1.75 10 1.75C14.5563 1.75 18.25 5.44365 18.25 10V12C18.25 13.2426 17.2426 14.25 16 14.25C14.7574 14.25 13.75 13.2426 13.75 12M14.25 10C14.25 12.3472 12.3472 14.25 10 14.25C7.65279 14.25 5.75 12.3472 5.75 10C5.75 7.65279 7.65279 5.75 10 5.75C12.3472 5.75 14.25 7.65279 14.25 10Z" stroke="black" stroke-width="1.5" stroke-linecap="round" stroke-linejoin="round"/>
</svg>
