<svg width="100" height="100" viewBox="0 0 100 100" fill="none" xmlns="http://www.w3.org/2000/svg">
<rect x="0.5" y="0.5" width="99" height="99" rx="17.5" fill="#F6F4F4" stroke="#F6F4F4"/>
<rect x="10.5" y="10.5" width="79" height="79" rx="11.5" fill="white" stroke="#D3C5C8"/>
<path d="M63.0379 62.2932L62.1679 61.4232C62.615 60.7465 62.8809 59.9248 62.8809 59.0548C62.8809 56.6623 60.9475 54.729 58.555 54.729C56.1625 54.729 54.2292 56.6623 54.2292 59.0548C54.2292 61.4473 56.1625 63.3807 58.555 63.3807C59.4371 63.3807 60.2467 63.1148 60.9234 62.6678L61.7934 63.5378C61.9625 63.7069 62.1921 63.7915 62.4096 63.7915C62.6392 63.7915 62.8567 63.7069 63.0259 63.5378C63.3763 63.1873 63.3763 62.6315 63.0379 62.2932Z" fill="#BB022A"/>
<path d="M50.2779 50.5845C49.7825 50.5845 49.3837 50.9832 49.3837 51.4786C49.3837 51.9741 49.7825 52.3728 50.2779 52.3728C50.7733 52.3728 51.1721 51.9741 51.1721 51.4786C51.1721 50.9832 50.7733 50.5845 50.2779 50.5845Z" fill="#BB022A"/>
<path d="M43.6683 51.7808C43.1729 51.7808 42.7742 52.1795 42.7742 52.6749C42.7742 53.1703 43.1729 53.5691 43.6683 53.5691C44.1638 53.5691 44.5625 53.1703 44.5625 52.6749C44.5625 52.1795 44.1638 51.7808 43.6683 51.7808Z" fill="#BB022A"/>
<path d="M55.0629 38.4165H44.9371C44.5988 38.4165 44.2725 38.4286 43.9584 38.4769C40.1521 38.8273 37.9167 41.3769 37.9167 45.4369V55.5628C37.9167 59.6228 40.1521 62.1723 43.9584 62.5228C44.2725 62.5711 44.5988 62.5832 44.9371 62.5832H51.8125C52.2838 62.5832 52.5859 62.0515 52.4046 61.6165C52.0542 60.7828 51.8125 59.8161 51.8125 58.9582C51.8125 55.2969 54.7971 52.3123 58.4584 52.3123C59.3767 52.3123 60.2709 52.4936 61.0925 52.8561C61.5396 53.0494 62.0834 52.7473 62.0834 52.264V45.4369C62.0834 41.0386 59.4613 38.4165 55.0629 38.4165ZM52.9967 45.7269V51.4786C52.9967 51.4907 52.9846 51.5028 52.9846 51.5269C52.9604 53.0011 51.7642 54.1973 50.2779 54.1973C48.7796 54.1973 47.5713 52.9769 47.5713 51.4907C47.5713 49.9923 48.7917 48.784 50.2779 48.784C50.5921 48.784 50.8942 48.8444 51.1842 48.9532V46.9111L46.3871 48.2161V52.6869C46.3871 52.699 46.375 52.7111 46.375 52.7232C46.3509 54.1973 45.1546 55.3815 43.6684 55.3815C42.17 55.3815 40.9617 54.1611 40.9617 52.6748C40.9617 51.1886 42.1821 49.9682 43.6684 49.9682C43.9825 49.9682 44.2846 50.0286 44.5625 50.1373V47.5273V45.4128C44.5625 44.289 45.2634 43.3828 46.3388 43.0928L49.9396 42.1019C51.0634 41.7998 51.7521 42.1019 52.1388 42.3919C52.6946 42.8148 52.9725 43.5036 52.9725 44.4219V45.7269H52.9967Z" fill="#292D32"/>
</svg>
