<svg width="100" height="100" viewBox="0 0 100 100" fill="none" xmlns="http://www.w3.org/2000/svg">
<rect x="0.5" y="0.5" width="99" height="99" rx="17.5" fill="#1F1417" stroke="#1F1417"/>
<rect x="10.5" y="10.5" width="79" height="79" rx="11.5" fill="#121212" stroke="#3D292D"/>
<path d="M63.0378 62.2932L62.1678 61.4232C62.6148 60.7465 62.8807 59.9248 62.8807 59.0548C62.8807 56.6623 60.9473 54.729 58.5548 54.729C56.1623 54.729 54.229 56.6623 54.229 59.0548C54.229 61.4473 56.1623 63.3807 58.5548 63.3807C59.4369 63.3807 60.2465 63.1148 60.9232 62.6678L61.7932 63.5378C61.9623 63.7069 62.1919 63.7915 62.4094 63.7915C62.639 63.7915 62.8565 63.7069 63.0257 63.5378C63.3761 63.1873 63.3761 62.6315 63.0378 62.2932Z" fill="#BB022A"/>
<path d="M50.278 50.5845C49.7825 50.5845 49.3838 50.9832 49.3838 51.4786C49.3838 51.9741 49.7825 52.3728 50.278 52.3728C50.7734 52.3728 51.1721 51.9741 51.1721 51.4786C51.1721 50.9832 50.7734 50.5845 50.278 50.5845Z" fill="#BB022A"/>
<path d="M43.6681 51.7808C43.1727 51.7808 42.7739 52.1795 42.7739 52.6749C42.7739 53.1703 43.1727 53.5691 43.6681 53.5691C44.1635 53.5691 44.5623 53.1703 44.5623 52.6749C44.5623 52.1795 44.1635 51.7808 43.6681 51.7808Z" fill="#BB022A"/>
<path d="M55.0628 38.4165H44.9369C44.5986 38.4165 44.2723 38.4286 43.9582 38.4769C40.1519 38.8273 37.9165 41.3769 37.9165 45.4369V55.5628C37.9165 59.6228 40.1519 62.1723 43.9582 62.5228C44.2723 62.5711 44.5986 62.5832 44.9369 62.5832H51.8123C52.2836 62.5832 52.5857 62.0515 52.4044 61.6165C52.054 60.7828 51.8123 59.8161 51.8123 58.9582C51.8123 55.2969 54.7969 52.3123 58.4582 52.3123C59.3765 52.3123 60.2707 52.4936 61.0923 52.8561C61.5394 53.0494 62.0832 52.7473 62.0832 52.264V45.4369C62.0832 41.0386 59.4611 38.4165 55.0628 38.4165ZM52.9965 45.7269V51.4786C52.9965 51.4907 52.9844 51.5028 52.9844 51.5269C52.9603 53.0011 51.764 54.1973 50.2778 54.1973C48.7794 54.1973 47.5711 52.9769 47.5711 51.4907C47.5711 49.9923 48.7915 48.784 50.2778 48.784C50.5919 48.784 50.894 48.8444 51.184 48.9532V46.9111L46.3869 48.2161V52.6869C46.3869 52.699 46.3748 52.7111 46.3748 52.7232C46.3507 54.1973 45.1544 55.3815 43.6682 55.3815C42.1698 55.3815 40.9615 54.1611 40.9615 52.6748C40.9615 51.1886 42.1819 49.9682 43.6682 49.9682C43.9823 49.9682 44.2844 50.0286 44.5623 50.1373V47.5273V45.4128C44.5623 44.289 45.2632 43.3828 46.3386 43.0928L49.9394 42.1019C51.0632 41.7998 51.7519 42.1019 52.1386 42.3919C52.6944 42.8148 52.9723 43.5036 52.9723 44.4219V45.7269H52.9965Z" fill="#292D32"/>
</svg>
