<svg width="16" height="16" viewBox="0 0 16 16" fill="none" xmlns="http://www.w3.org/2000/svg">
<g clip-path="url(#clip0_1206_19521)">
<circle cx="8" cy="8" r="8" fill="#5235E8"/>
<path d="M8.17734 2.01704V2.02272C8.18302 2.05112 8.18302 2.0852 8.18302 2.11928V6.21448C8.17734 6.2372 8.1603 6.24288 8.14326 6.25424C8.02399 6.31104 7.91039 6.36215 7.79111 6.41327C7.62639 6.48711 7.456 6.56663 7.29128 6.64047L6.69489 6.9131C6.53018 6.98694 6.36546 7.06078 6.20642 7.13462C6.01331 7.2255 5.81451 7.3107 5.62139 7.40157C5.45668 7.47541 5.29196 7.55493 5.12156 7.62877C4.98525 7.69125 4.84893 7.74805 4.71829 7.81053C4.70693 7.81621 4.69557 7.82189 4.68421 7.82189C4.67853 7.82189 4.67853 7.82189 4.67285 7.81621L4.82621 7.56061C5.12156 7.07214 5.41124 6.58935 5.70659 6.10088C6.01899 5.57833 6.33706 5.05578 6.64945 4.53323C6.93913 4.05044 7.23448 3.56765 7.52416 3.08486C7.73431 2.73271 7.95015 2.38055 8.1603 2.0284C8.16598 2.01704 8.17166 2.01136 8.17166 2H8.17734C8.17166 2.00568 8.17734 2.01136 8.17734 2.01704Z" fill="#F3F3F3"/>
<path d="M11.6642 7.81633L11.6699 7.82201L10.835 8.31616L8.21084 9.86677C8.19948 9.87245 8.18812 9.87813 8.18244 9.88381C8.16541 9.88381 8.16541 9.86677 8.16541 9.86109V9.80997V6.2998C8.16541 6.28276 8.16541 6.26004 8.17109 6.243C8.17677 6.22028 8.1938 6.22596 8.21084 6.23164C8.28468 6.26572 8.3642 6.2998 8.43804 6.33388C8.65956 6.43612 8.88107 6.53836 9.10259 6.63491C9.2957 6.72011 9.48314 6.81099 9.67626 6.89619C9.86937 6.98139 10.0625 7.07227 10.2556 7.15746C10.4203 7.2313 10.5907 7.31082 10.7554 7.38466C10.9202 7.4585 11.0905 7.53802 11.2553 7.61186C11.3859 7.66865 11.5165 7.73113 11.6472 7.78793C11.6472 7.80497 11.6529 7.81065 11.6642 7.81633Z" fill="#8A8DA7"/>
<path d="M8.17686 13.4112C8.17686 13.4168 8.17118 13.4225 8.17118 13.4282H8.1655C8.1655 13.4168 8.15414 13.4112 8.14846 13.3998C7.7963 12.9056 7.44415 12.4058 7.092 11.9117C6.73416 11.4062 6.37065 10.895 6.01282 10.3895C5.66634 9.90098 5.31419 9.40683 4.96772 8.91836C4.87684 8.78772 4.78596 8.66276 4.69508 8.53213C4.6894 8.52077 4.68372 8.51509 4.67236 8.49805C4.6894 8.49805 4.70076 8.50941 4.70644 8.51509C5.20059 8.80476 5.68906 9.09444 6.18321 9.38411C6.7512 9.71922 7.31351 10.0543 7.8815 10.3895L8.17118 10.5598C8.18254 10.5712 8.18254 10.5826 8.18254 10.5939V13.3316C8.18254 13.36 8.18254 13.3884 8.17686 13.4112Z" fill="#F3F3F3"/>
<path d="M4.66663 7.82731V7.82163C4.84838 7.74212 5.02446 7.65692 5.20622 7.5774C5.43909 7.46948 5.67197 7.36724 5.90484 7.25933C6.08092 7.17981 6.26267 7.09461 6.43875 7.01509C6.70003 6.89581 6.95562 6.78221 7.2169 6.66294C7.39297 6.58342 7.56905 6.5039 7.75081 6.4187C7.87576 6.3619 8.0064 6.3051 8.13136 6.24831C8.14272 6.24263 8.15976 6.23695 8.16544 6.22559C8.17112 6.22559 8.17112 6.23127 8.16544 6.23695V9.84367C8.16544 9.86071 8.15976 9.87775 8.17112 9.88911C8.15976 9.90615 8.1484 9.88911 8.14272 9.88343C8.0916 9.85503 8.04048 9.82664 7.98936 9.79256C6.89314 9.14505 5.79124 8.49186 4.69503 7.84435C4.68935 7.83867 4.67799 7.83299 4.66663 7.82731Z" fill="#C5C8D9"/>
<path d="M11.6529 8.49805H11.6586C11.6586 8.50941 11.6472 8.52077 11.6416 8.53213C10.5965 10.0032 9.55136 11.48 8.50626 12.9511C8.39834 13.1044 8.28474 13.2578 8.17682 13.4112C8.17114 13.4055 8.17114 13.3998 8.17114 13.3941V13.36V10.6053V10.5542C8.4097 10.4122 8.64257 10.2759 8.88113 10.1339C9.80127 9.58859 10.7214 9.049 11.6359 8.50373C11.6416 8.50941 11.6472 8.50373 11.6529 8.49805Z" fill="#C5C8D9"/>
<path d="M8.17115 6.23694V6.22558V6.1915V2.0679C8.17115 2.05086 8.16547 2.0395 8.17683 2.02246C9.32985 3.93658 10.4829 5.84503 11.6302 7.75915C11.6416 7.77619 11.6586 7.79891 11.6643 7.82163C11.5848 7.79323 11.5109 7.75347 11.4371 7.71939C11.3462 7.67963 11.2497 7.63419 11.1588 7.59443C11.102 7.56603 11.0395 7.54331 10.9827 7.51491C10.8861 7.46948 10.7896 7.42972 10.693 7.38428C10.6362 7.36156 10.5794 7.33316 10.5226 7.30476L10.1478 7.13436C10.0853 7.10596 10.0228 7.07756 9.95464 7.04916L9.682 6.92989C9.6252 6.90717 9.5684 6.87877 9.5116 6.85037L9.13673 6.67997C9.07425 6.65157 9.01177 6.62317 8.94361 6.59477L8.67098 6.47549C8.6085 6.4471 8.5517 6.4187 8.48922 6.3903C8.38131 6.33918 8.27339 6.28806 8.15979 6.24262C8.17683 6.23694 8.17115 6.23694 8.17115 6.23694Z" fill="#C5C8D9"/>
</g>
<defs>
<clipPath id="clip0_1206_19521">
<rect width="16" height="16" fill="white"/>
</clipPath>
</defs>
</svg>
