<svg width="20" height="20" viewBox="0 0 20 20" fill="none" xmlns="http://www.w3.org/2000/svg">
<mask id="mask0_1194_17112" style="mask-type:alpha" maskUnits="userSpaceOnUse" x="0" y="0" width="20" height="20">
<path fill-rule="evenodd" clip-rule="evenodd" d="M0 0H20V20H0V0Z" fill="white"/>
</mask>
<g mask="url(#mask0_1194_17112)">
<path fill-rule="evenodd" clip-rule="evenodd" d="M10.0001 18.333C5.41675 18.333 1.66675 14.583 1.66675 9.95802C1.70841 5.37469 5.41675 1.62469 10.0417 1.66636C14.6251 1.70803 18.3334 5.41636 18.3334 10.083C18.2917 14.6247 14.5834 18.333 10.0001 18.333Z" fill="#0090FF"/>
<path fill-rule="evenodd" clip-rule="evenodd" d="M10.748 9.0466L10.4916 10.3491L12.9275 10.6747L12.7566 11.2853L10.3634 10.9596C10.1925 11.4888 10.107 12.0586 9.89333 12.5471C9.67965 13.1169 9.46597 13.6868 9.20956 14.2159C8.86768 14.9079 8.26939 15.3963 7.45743 15.5184C6.98734 15.5998 6.47452 15.5591 6.08991 15.2742C5.9617 15.1928 5.8335 15.03 5.8335 14.9079C5.8335 14.745 5.91897 14.5415 6.04717 14.4601C6.13264 14.4194 6.34632 14.4601 6.47452 14.5008C6.60273 14.6229 6.73093 14.7857 6.8164 14.9486C7.07281 15.2742 7.41469 15.3149 7.75657 15.0707C8.14119 14.745 8.35486 14.2973 8.48307 13.8496C8.73948 12.8727 8.99589 11.9365 9.20956 10.9596V10.7968L6.94461 10.4712L7.03008 9.86066L9.38051 10.1863L9.67965 8.92449L7.24375 8.55816L7.32922 7.9069L9.85059 8.23253C9.93606 7.98831 9.9788 7.7848 10.0643 7.58128C10.2779 6.84862 10.4916 6.11596 11.0044 5.46471C11.5173 4.81346 12.1155 4.40643 13.013 4.44713C13.3976 4.44713 13.7822 4.56924 14.0386 4.85416C14.0814 4.89487 14.1668 4.97627 14.1668 5.05768C14.1668 5.22049 14.1668 5.42401 14.0386 5.54612C13.8677 5.66823 13.654 5.62752 13.4831 5.46471C13.3549 5.3426 13.2694 5.22049 13.1412 5.09838C12.8848 4.77276 12.5002 4.73205 12.201 5.01698C11.9873 5.22049 11.7737 5.50541 11.6455 5.79034C11.3463 6.6451 11.1326 7.54058 10.8335 8.43605L13.1839 8.76167L13.013 9.37222L10.748 9.0466Z" fill="white"/>
</g>
</svg>
