<svg width="20" height="21" viewBox="0 0 20 21" fill="none" xmlns="http://www.w3.org/2000/svg">
<path d="M18.25 10.3846C18.25 14.941 14.5563 18.6346 10 18.6346M18.25 10.3846C18.25 5.82829 14.5563 2.13464 10 2.13464M18.25 10.3846H1.75M10 18.6346C5.44365 18.6346 1.75 14.941 1.75 10.3846M10 18.6346C11.7949 18.6346 13.25 14.941 13.25 10.3846C13.25 5.82829 11.7949 2.13464 10 2.13464M10 18.6346C8.20507 18.6346 6.75 14.941 6.75 10.3846C6.75 5.82829 8.20507 2.13464 10 2.13464M1.75 10.3846C1.75 5.82829 5.44365 2.13464 10 2.13464" stroke="#F6F4F4" stroke-width="1.5" stroke-linejoin="round"/>
</svg>
