<svg width="20" height="20" viewBox="0 0 20 20" fill="none" xmlns="http://www.w3.org/2000/svg">
<path d="M18.25 10C18.25 14.5563 14.5563 18.25 10 18.25M18.25 10C18.25 5.44365 14.5563 1.75 10 1.75M18.25 10H1.75M10 18.25C5.44365 18.25 1.75 14.5563 1.75 10M10 18.25C11.7949 18.25 13.25 14.5563 13.25 10C13.25 5.44365 11.7949 1.75 10 1.75M10 18.25C8.20507 18.25 6.75 14.5563 6.75 10C6.75 5.44365 8.20507 1.75 10 1.75M1.75 10C1.75 5.44365 5.44365 1.75 10 1.75" stroke="black" stroke-width="1.5" stroke-linejoin="round"/>
</svg>
