<svg width="20" height="20" viewBox="0 0 20 20" fill="none" xmlns="http://www.w3.org/2000/svg">
<g clip-path="url(#clip0_797_47674)">
<path d="M10.2681 0.638672C5.16851 0.638672 0.996094 4.81109 0.996094 9.91072C0.996094 15.0103 5.16851 19.1828 10.2681 19.1828C15.3678 19.1828 19.5402 15.0103 19.5402 9.91072C19.5402 4.81109 15.3678 0.638672 10.2681 0.638672ZM16.295 6.7814C16.7586 6.7814 17.1063 7.1291 17.5699 7.1291C17.2222 7.59271 15.7155 7.59271 15.2519 7.0132C15.5996 6.8973 15.8314 6.7814 16.295 6.7814ZM2.1551 9.91072C2.1551 9.44711 2.1551 8.98351 2.271 8.40401C2.3869 8.40401 2.5028 8.51991 2.6187 8.51991C2.6187 8.51991 2.7346 8.63581 2.7346 8.75171C2.7346 9.09941 3.0823 9.33121 3.31411 9.33121C4.24131 9.44711 4.58901 10.2584 5.40032 10.4902C5.63212 10.6061 5.51622 10.8379 5.40032 11.0697C4.70491 11.9969 5.28441 12.6923 5.86392 13.2718C6.44342 13.7354 6.44342 14.199 6.55932 14.8944C6.55932 15.7057 6.67522 16.6329 7.02292 17.4443C4.12541 16.0534 2.1551 13.2718 2.1551 9.91072ZM10.2681 18.0238C9.45683 18.0238 8.52963 17.9079 7.83423 17.6761C7.71833 17.4443 7.71833 17.2125 7.83423 16.9807C8.29783 16.0534 8.76143 15.2421 9.34093 14.4308C9.57273 14.199 9.80454 13.9672 9.80454 13.6195C9.80454 13.3877 9.92044 13.04 10.0363 12.8082C10.384 12.2287 10.2681 11.881 9.80454 11.7651C8.87733 11.5333 8.41373 10.722 7.71833 10.3743C7.02292 10.0266 6.32752 9.79482 5.74802 10.1425C5.51622 10.2584 5.16851 10.3743 5.16851 10.0266C5.16851 9.56302 4.58901 9.21531 4.70491 8.75171C4.58901 8.75171 4.47311 8.75171 4.35721 8.86761C4.24131 8.98351 4.12541 9.09941 3.89361 8.98351C3.66181 8.75171 3.77771 8.51991 3.77771 8.28811C3.89361 8.05631 4.00951 7.94041 4.24131 7.82451C4.70491 7.70861 5.16851 7.70861 5.40032 8.28811C5.74802 7.245 6.44342 6.6655 7.13882 6.2019C7.13882 6.2019 8.06603 5.39059 8.18193 5.39059C8.29783 5.39059 8.41373 5.6224 8.64553 5.7383C8.87733 5.7383 8.99323 5.7383 8.99323 5.5065C9.10913 4.92699 8.76143 4.23159 8.29783 4.11569C8.29783 3.99979 8.41373 3.99979 8.41373 3.99979C8.76143 3.88389 9.22503 3.65209 9.10913 3.30438C9.10913 2.84078 8.64553 2.60898 8.18193 2.60898C7.95013 2.60898 7.71833 2.60898 7.48653 2.72488C7.02292 2.95668 6.44342 3.18848 5.74802 3.18848C7.02292 2.26128 8.64553 1.79768 10.2681 1.79768H11.1953C10.4999 1.91358 9.80454 2.14538 9.34093 2.37718C10.0363 2.49308 10.1522 2.84078 9.92044 3.42029C9.80454 3.65209 9.92044 3.88389 10.1522 3.99979C10.384 4.11569 10.6158 4.11569 10.7317 3.88389C10.9635 3.53619 11.4271 3.42029 11.7748 3.30438C12.2384 3.18848 12.5862 2.95668 12.9339 2.49308C12.9339 2.37718 13.0498 2.37718 13.1657 2.26128C13.8611 2.49308 14.5565 2.95668 15.2519 3.42029C15.136 3.42029 15.136 3.53619 15.0201 3.53619C14.7883 3.76799 14.4406 3.88389 14.7883 4.34749C14.9042 4.57929 14.7883 4.69519 14.6724 4.81109C14.4406 4.92699 14.3247 4.81109 14.2088 4.69519C14.0929 4.57929 14.0929 4.34749 13.7452 4.34749C13.6293 4.57929 13.2816 4.69519 13.2816 5.04289C13.8611 5.04289 13.7452 5.5065 13.8611 5.8542C13.1657 5.9701 12.9339 6.3178 13.2816 6.8973C13.3975 7.1291 13.1657 7.245 13.0498 7.3609C12.5862 8.05631 12.1225 8.51991 12.1225 9.33121C12.1225 10.1425 12.7021 10.9538 13.6293 10.8379C14.6724 10.722 14.6724 10.722 15.0201 11.6492C15.0201 11.7651 15.136 11.881 15.136 11.9969C15.2519 12.2287 15.3678 12.4605 15.2519 12.6923C14.9042 13.6195 15.3678 14.3149 15.7155 15.0103C15.8314 15.2421 15.9473 15.358 16.0632 15.4739C14.5565 17.0966 12.5862 18.0238 10.2681 18.0238Z" fill="#5C3D44"/>
</g>
<defs>
<clipPath id="clip0_797_47674">
<rect width="18.5441" height="18.5441" fill="white" transform="translate(0.996582 0.638672)"/>
</clipPath>
</defs>
</svg>
