<svg width="20" height="20" viewBox="0 0 20 20" fill="none" xmlns="http://www.w3.org/2000/svg">
<path d="M2.75 11.75H4.05C5.1701 11.75 5.73016 11.75 6.15798 11.968C6.53431 12.1597 6.84027 12.4657 7.03201 12.842C7.25 13.2698 7.25 13.8299 7.25 14.95V16C7.25 16.2322 7.25 16.3483 7.24037 16.446C7.14685 17.3956 6.39559 18.1468 5.44603 18.2404C5.34825 18.25 5.23217 18.25 5 18.25C4.76783 18.25 4.65175 18.25 4.55397 18.2404C3.60441 18.1468 2.85315 17.3956 2.75963 16.446C2.75 16.3483 2.75 16.2322 2.75 16L2.75 11.75ZM2.75 11.75V9C2.75 4.99594 5.99594 1.75 10 1.75C14.0041 1.75 17.25 4.99594 17.25 9V11.75M17.25 11.75H15.95C14.8299 11.75 14.2698 11.75 13.842 11.968C13.4657 12.1597 13.1597 12.4657 12.968 12.842C12.75 13.2698 12.75 13.8299 12.75 14.95V16C12.75 16.2322 12.75 16.3483 12.7596 16.446C12.8532 17.3956 13.6044 18.1468 14.554 18.2404C14.6517 18.25 14.7678 18.25 15 18.25C15.2322 18.25 15.3483 18.25 15.446 18.2404C16.3956 18.1468 17.1468 17.3956 17.2404 16.446C17.25 16.3483 17.25 16.2322 17.25 16V11.75Z" stroke="black" stroke-width="1.5" stroke-linejoin="round"/>
</svg>
