<svg width="20" height="21" viewBox="0 0 20 21" fill="none" xmlns="http://www.w3.org/2000/svg">
<path d="M2.75 12.1348H4.05C5.1701 12.1348 5.73016 12.1348 6.15798 12.3528C6.53431 12.5445 6.84027 12.8505 7.03201 13.2268C7.25 13.6546 7.25 14.2147 7.25 15.3348V16.3848C7.25 16.6169 7.25 16.733 7.24037 16.8308C7.14685 17.7804 6.39559 18.5316 5.44603 18.6251C5.34825 18.6348 5.23217 18.6348 5 18.6348C4.76783 18.6348 4.65175 18.6348 4.55397 18.6251C3.60441 18.5316 2.85315 17.7804 2.75963 16.8308C2.75 16.733 2.75 16.6169 2.75 16.3848L2.75 12.1348ZM2.75 12.1348V9.38477C2.75 5.3807 5.99594 2.13477 10 2.13477C14.0041 2.13477 17.25 5.3807 17.25 9.38477V12.1348M17.25 12.1348H15.95C14.8299 12.1348 14.2698 12.1348 13.842 12.3528C13.4657 12.5445 13.1597 12.8505 12.968 13.2268C12.75 13.6546 12.75 14.2147 12.75 15.3348V16.3848C12.75 16.6169 12.75 16.733 12.7596 16.8308C12.8532 17.7804 13.6044 18.5316 14.554 18.6251C14.6517 18.6348 14.7678 18.6348 15 18.6348C15.2322 18.6348 15.3483 18.6348 15.446 18.6251C16.3956 18.5316 17.1468 17.7804 17.2404 16.8308C17.25 16.733 17.25 16.6169 17.25 16.3848V12.1348Z" stroke="white" stroke-width="1.5" stroke-linejoin="round"/>
</svg>
