<svg width="130" height="172" viewBox="0 0 130 172" fill="none" xmlns="http://www.w3.org/2000/svg">
<g filter="url(#filter0_dd_84_8189)">
<path d="M102.699 57.5048C89.6818 44.4873 68.5763 44.4873 55.5589 57.5048C42.5414 70.5223 41.9629 92.2332 55.5589 104.645C90.9998 137 132.285 87.0907 102.699 57.5048Z" fill="#00090C"/>
<path d="M102.501 57.7029C89.5931 44.7948 68.665 44.7948 55.7569 57.7029C42.8403 70.6195 42.2819 92.1452 55.7477 104.438C64.5587 112.482 73.7109 115.396 82.017 114.81C90.3282 114.225 97.8224 110.134 103.307 104.114C114.279 92.072 117.169 72.3706 102.501 57.7029Z" stroke="url(#paint0_linear_84_8189)" stroke-width="0.560224"/>
</g>
<rect x="37.7358" y="39.3588" width="83.2392" height="83.2392" rx="41.6196" stroke="#D3C5C8" stroke-width="0.376648"/>
<rect x="30.2029" y="31.8258" width="98.3051" height="98.3051" rx="49.1525" stroke="#D3C5C8" stroke-width="0.376648"/>
<mask id="mask0_84_8189" style="mask-type:alpha" maskUnits="userSpaceOnUse" x="45" y="47" width="68" height="68">
<circle cx="33.3333" cy="33.3333" r="33.0532" transform="matrix(-1 0 0 1 112.5 47.8335)" fill="#171B1C" stroke="url(#paint1_linear_84_8189)" stroke-width="0.560224"/>
</mask>
<g mask="url(#mask0_84_8189)">
<g opacity="0.7">
<g opacity="0.5">
<path d="M103.813 104.248L97.6957 110.366L95.3652 106.87L90.7041 111.531" stroke="#FD2654" stroke-width="2.18487" stroke-linecap="round" stroke-linejoin="round"/>
<path d="M100.9 104.248H103.813V107.161" stroke="#FD2654" stroke-width="2.18487" stroke-linecap="round" stroke-linejoin="round"/>
<path d="M92.8891 122.455H101.629C108.911 122.455 111.825 119.542 111.825 112.259V103.52C111.825 96.2369 108.911 93.3237 101.629 93.3237H92.8891C85.6062 93.3237 82.693 96.2369 82.693 103.52V112.259C82.693 119.542 85.6062 122.455 92.8891 122.455Z" stroke="#FD2654" stroke-width="2.18487" stroke-linecap="round" stroke-linejoin="round"/>
</g>
<g opacity="0.5">
<path d="M103.813 54.2481L97.6957 60.3657L95.3652 56.8699L90.7041 61.531" stroke="#FD2654" stroke-width="2.18487" stroke-linecap="round" stroke-linejoin="round"/>
<path d="M100.9 54.2481H103.813V57.1613" stroke="#FD2654" stroke-width="2.18487" stroke-linecap="round" stroke-linejoin="round"/>
<path d="M92.8891 72.4554H101.629C108.911 72.4554 111.825 69.5422 111.825 62.2593V53.5198C111.825 46.2369 108.911 43.3237 101.629 43.3237H92.8891C85.6062 43.3237 82.693 46.2369 82.693 53.5198V62.2593C82.693 69.5422 85.6062 72.4554 92.8891 72.4554Z" stroke="#FD2654" stroke-width="2.18487" stroke-linecap="round" stroke-linejoin="round"/>
</g>
</g>
<g opacity="0.7">
<g opacity="0.5">
<path d="M66.8133 84.2481L60.6957 90.3658L58.3652 86.87L53.7041 91.531" stroke="#FD2654" stroke-width="2.18487" stroke-linecap="round" stroke-linejoin="round"/>
<path d="M63.9003 84.2481H66.8134V87.1613" stroke="#FD2654" stroke-width="2.18487" stroke-linecap="round" stroke-linejoin="round"/>
<path d="M55.8891 102.455H64.6286C71.9115 102.455 74.8246 99.5422 74.8246 92.2593V83.5198C74.8246 76.2369 71.9115 73.3237 64.6286 73.3237H55.8891C48.6062 73.3237 45.693 76.2369 45.693 83.5198V92.2593C45.693 99.5422 48.6062 102.455 55.8891 102.455Z" stroke="#FD2654" stroke-width="2.18487" stroke-linecap="round" stroke-linejoin="round"/>
</g>
<g opacity="0.5">
<path d="M55.8891 52.4554H64.6286C71.9115 52.4554 74.8246 49.5422 74.8246 42.2593V33.5198C74.8246 26.2369 71.9115 23.3237 64.6286 23.3237H55.8891C48.6062 23.3237 45.693 26.2369 45.693 33.5198V42.2593C45.693 49.5422 48.6062 52.4554 55.8891 52.4554Z" stroke="#FD2654" stroke-width="2.18487" stroke-linecap="round" stroke-linejoin="round"/>
</g>
</g>
<g filter="url(#filter1_b_84_8189)">
<rect width="57.1429" height="57.1429" rx="28.5714" transform="matrix(-1 0 0 1 108.018 52.3153)" fill="url(#paint2_radial_84_8189)" fill-opacity="0.1"/>
<path d="M86.0013 77.2453L79.8837 83.3629L77.5532 79.8671L72.8921 84.5282" stroke="white" stroke-width="2.18487" stroke-linecap="round" stroke-linejoin="round"/>
<path d="M83.0883 77.2453H86.0014V80.1585" stroke="white" stroke-width="2.18487" stroke-linecap="round" stroke-linejoin="round"/>
<path d="M75.0771 95.4526H83.8166C91.0995 95.4526 94.0126 92.5394 94.0126 85.2565V76.517C94.0126 69.2341 91.0995 66.3209 83.8166 66.3209H75.0771C67.7941 66.3209 64.881 69.2341 64.881 76.517V85.2565C64.881 92.5394 67.7941 95.4526 75.0771 95.4526Z" stroke="white" stroke-width="2.18487" stroke-linecap="round" stroke-linejoin="round"/>
</g>
</g>
<path d="M0 82L30 82" stroke="#D3C5C8" stroke-width="0.4"/>
<path d="M80 32L80 0" stroke="#D3C5C8" stroke-width="0.4"/>
<path d="M80 172L80 130" stroke="#D3C5C8" stroke-width="0.4"/>
<defs>
<filter id="filter0_dd_84_8189" x="44.8243" y="47.3651" width="68.744" height="68.9279" filterUnits="userSpaceOnUse" color-interpolation-filters="sRGB">
<feFlood flood-opacity="0" result="BackgroundImageFix"/>
<feColorMatrix in="SourceAlpha" type="matrix" values="0 0 0 0 0 0 0 0 0 0 0 0 0 0 0 0 0 0 127 0" result="hardAlpha"/>
<feOffset/>
<feComposite in2="hardAlpha" operator="out"/>
<feColorMatrix type="matrix" values="0 0 0 0 0 0 0 0 0 0 0 0 0 0 0 0 0 0 0.25 0"/>
<feBlend mode="normal" in2="BackgroundImageFix" result="effect1_dropShadow_84_8189"/>
<feColorMatrix in="SourceAlpha" type="matrix" values="0 0 0 0 0 0 0 0 0 0 0 0 0 0 0 0 0 0 127 0" result="hardAlpha"/>
<feOffset dy="0.376648"/>
<feGaussianBlur stdDeviation="0.376648"/>
<feComposite in2="hardAlpha" operator="out"/>
<feColorMatrix type="matrix" values="0 0 0 0 0 0 0 0 0 0 0 0 0 0 0 0 0 0 0.25 0"/>
<feBlend mode="normal" in2="effect1_dropShadow_84_8189" result="effect2_dropShadow_84_8189"/>
<feBlend mode="normal" in="SourceGraphic" in2="effect2_dropShadow_84_8189" result="shape"/>
</filter>
<filter id="filter1_b_84_8189" x="48.6345" y="50.0744" width="61.6246" height="61.6246" filterUnits="userSpaceOnUse" color-interpolation-filters="sRGB">
<feFlood flood-opacity="0" result="BackgroundImageFix"/>
<feGaussianBlur in="BackgroundImageFix" stdDeviation="1.12045"/>
<feComposite in2="SourceAlpha" operator="in" result="effect1_backgroundBlur_84_8189"/>
<feBlend mode="normal" in="SourceGraphic" in2="effect1_backgroundBlur_84_8189" result="shape"/>
</filter>
<linearGradient id="paint0_linear_84_8189" x1="102.699" y1="104.645" x2="55.5587" y2="57.5047" gradientUnits="userSpaceOnUse">
<stop stop-color="#3D292D"/>
<stop offset="1" stop-color="#3D292D" stop-opacity="0"/>
</linearGradient>
<linearGradient id="paint1_linear_84_8189" x1="33.3333" y1="0" x2="33.3333" y2="66.6667" gradientUnits="userSpaceOnUse">
<stop stop-color="white" stop-opacity="0"/>
<stop offset="1" stop-color="white"/>
</linearGradient>
<radialGradient id="paint2_radial_84_8189" cx="0" cy="0" r="1" gradientUnits="userSpaceOnUse" gradientTransform="translate(31.6527 19.888) rotate(95.2375) scale(33.7544 77.8104)">
<stop stop-color="#ECFCE8"/>
<stop offset="1" stop-color="#ECFCE8" stop-opacity="0"/>
</radialGradient>
</defs>
</svg>
