<svg width="130" height="172" viewBox="0 0 130 172" fill="none" xmlns="http://www.w3.org/2000/svg">
<g filter="url(#filter0_dd_601_9776)">
<path d="M102.699 57.5048C89.6818 44.4873 68.5763 44.4873 55.5589 57.5048C42.5414 70.5223 41.9629 92.2332 55.5589 104.645C90.9998 137 132.285 87.0907 102.699 57.5048Z" fill="#00090C"/>
<path d="M102.501 57.7029C89.5931 44.7948 68.665 44.7948 55.7569 57.7029C42.8403 70.6195 42.2819 92.1452 55.7477 104.438C64.5587 112.482 73.7109 115.396 82.017 114.81C90.3282 114.225 97.8224 110.134 103.307 104.114C114.279 92.072 117.169 72.3706 102.501 57.7029Z" stroke="url(#paint0_linear_601_9776)" stroke-width="0.560224"/>
</g>
<rect x="37.7358" y="39.3588" width="83.2392" height="83.2392" rx="41.6196" stroke="#D3C5C8" stroke-width="0.376648"/>
<rect x="30.2029" y="31.8258" width="98.3051" height="98.3051" rx="49.1525" stroke="#D3C5C8" stroke-width="0.376648"/>
<mask id="mask0_601_9776" style="mask-type:alpha" maskUnits="userSpaceOnUse" x="45" y="47" width="68" height="68">
<circle cx="33.3333" cy="33.3333" r="33.0532" transform="matrix(-1 0 0 1 112.5 47.8335)" fill="#171B1C" stroke="url(#paint1_linear_601_9776)" stroke-width="0.560224"/>
</mask>
<g mask="url(#mask0_601_9776)">
<g opacity="0.7">
<g opacity="0.5">
<path d="M104.483 99.3977C107.397 101.422 109.407 104.641 109.814 108.356" stroke="white" stroke-width="2.18487" stroke-linecap="round" stroke-linejoin="round"/>
<path d="M84.8633 108.428C85.242 104.729 87.2229 101.51 90.107 99.4705" stroke="white" stroke-width="2.18487" stroke-linecap="round" stroke-linejoin="round"/>
<path d="M97.3462 101.626C99.5825 101.626 101.395 99.8133 101.395 97.5769C101.395 95.3406 99.5825 93.5276 97.3462 93.5276C95.1098 93.5276 93.2969 95.3406 93.2969 97.5769C93.2969 99.8133 95.1098 101.626 97.3462 101.626Z" stroke="#1974F8" stroke-width="2.18487" stroke-linecap="round" stroke-linejoin="round"/>
<path d="M86.8152 119.426C89.0515 119.426 90.8645 117.613 90.8645 115.376C90.8645 113.14 89.0515 111.327 86.8152 111.327C84.5788 111.327 82.7659 113.14 82.7659 115.376C82.7659 117.613 84.5788 119.426 86.8152 119.426Z" stroke="#1974F8" stroke-width="2.18487" stroke-linecap="round" stroke-linejoin="round"/>
<path d="M107.702 119.426C109.939 119.426 111.752 117.613 111.752 115.376C111.752 113.14 109.939 111.327 107.702 111.327C105.466 111.327 103.653 113.14 103.653 115.376C103.653 117.613 105.466 119.426 107.702 119.426Z" stroke="#1974F8" stroke-width="2.18487" stroke-linecap="round" stroke-linejoin="round"/>
</g>
<g opacity="0.5">
<path d="M104.483 49.3977C107.397 51.4223 109.407 54.6414 109.814 58.3556" stroke="white" stroke-width="2.18487" stroke-linecap="round" stroke-linejoin="round"/>
<path d="M84.8633 58.4285C85.242 54.7288 87.2229 51.5097 90.107 49.4705" stroke="white" stroke-width="2.18487" stroke-linecap="round" stroke-linejoin="round"/>
<path d="M91.7091 70.9114C93.3987 71.7708 95.3214 72.2514 97.3461 72.2514C99.2979 72.2514 101.133 71.8145 102.779 71.0134" stroke="white" stroke-width="2.18487" stroke-linecap="round" stroke-linejoin="round"/>
<path d="M97.3462 51.6262C99.5825 51.6262 101.395 49.8133 101.395 47.5769C101.395 45.3406 99.5825 43.5276 97.3462 43.5276C95.1098 43.5276 93.2969 45.3406 93.2969 47.5769C93.2969 49.8133 95.1098 51.6262 97.3462 51.6262Z" stroke="#1974F8" stroke-width="2.18487" stroke-linecap="round" stroke-linejoin="round"/>
<path d="M86.8152 69.4257C89.0515 69.4257 90.8645 67.6128 90.8645 65.3764C90.8645 63.14 89.0515 61.3271 86.8152 61.3271C84.5788 61.3271 82.7659 63.14 82.7659 65.3764C82.7659 67.6128 84.5788 69.4257 86.8152 69.4257Z" stroke="#1974F8" stroke-width="2.18487" stroke-linecap="round" stroke-linejoin="round"/>
<path d="M107.702 69.4257C109.939 69.4257 111.752 67.6128 111.752 65.3764C111.752 63.14 109.939 61.3271 107.702 61.3271C105.466 61.3271 103.653 63.14 103.653 65.3764C103.653 67.6128 105.466 69.4257 107.702 69.4257Z" stroke="#1974F8" stroke-width="2.18487" stroke-linecap="round" stroke-linejoin="round"/>
</g>
</g>
<g opacity="0.7">
<g opacity="0.5">
<path d="M67.4834 79.3977C70.3966 81.4223 72.4067 84.6414 72.8145 88.3557" stroke="white" stroke-width="2.18487" stroke-linecap="round" stroke-linejoin="round"/>
<path d="M47.8633 88.4285C48.242 84.7288 50.2229 81.5097 53.107 79.4705" stroke="white" stroke-width="2.18487" stroke-linecap="round" stroke-linejoin="round"/>
<path d="M54.7091 100.911C56.3987 101.771 58.3214 102.251 60.3461 102.251C62.2979 102.251 64.1332 101.814 65.7791 101.013" stroke="white" stroke-width="2.18487" stroke-linecap="round" stroke-linejoin="round"/>
<path d="M60.3462 81.6262C62.5825 81.6262 64.3955 79.8133 64.3955 77.5769C64.3955 75.3406 62.5825 73.5276 60.3462 73.5276C58.1098 73.5276 56.2969 75.3406 56.2969 77.5769C56.2969 79.8133 58.1098 81.6262 60.3462 81.6262Z" stroke="#1974F8" stroke-width="2.18487" stroke-linecap="round" stroke-linejoin="round"/>
<path d="M49.8152 99.4257C52.0515 99.4257 53.8645 97.6128 53.8645 95.3764C53.8645 93.14 52.0515 91.3271 49.8152 91.3271C47.5788 91.3271 45.7659 93.14 45.7659 95.3764C45.7659 97.6128 47.5788 99.4257 49.8152 99.4257Z" stroke="#1974F8" stroke-width="2.18487" stroke-linecap="round" stroke-linejoin="round"/>
<path d="M70.7025 99.4257C72.9389 99.4257 74.7518 97.6128 74.7518 95.3764C74.7518 93.14 72.9389 91.3271 70.7025 91.3271C68.4661 91.3271 66.6532 93.14 66.6532 95.3764C66.6532 97.6128 68.4661 99.4257 70.7025 99.4257Z" stroke="#1974F8" stroke-width="2.18487" stroke-linecap="round" stroke-linejoin="round"/>
</g>
<g opacity="0.5">
<path d="M54.7091 50.9114C56.3987 51.7708 58.3214 52.2515 60.3461 52.2515C62.2979 52.2515 64.1332 51.8145 65.7791 51.0134" stroke="white" stroke-width="2.18487" stroke-linecap="round" stroke-linejoin="round"/>
<path d="M49.8152 49.4257C52.0515 49.4257 53.8645 47.6128 53.8645 45.3764C53.8645 43.14 52.0515 41.3271 49.8152 41.3271C47.5788 41.3271 45.7659 43.14 45.7659 45.3764C45.7659 47.6128 47.5788 49.4257 49.8152 49.4257Z" stroke="#1974F8" stroke-width="2.18487" stroke-linecap="round" stroke-linejoin="round"/>
<path d="M70.7025 49.4257C72.9389 49.4257 74.7518 47.6128 74.7518 45.3764C74.7518 43.14 72.9389 41.3271 70.7025 41.3271C68.4661 41.3271 66.6532 43.14 66.6532 45.3764C66.6532 47.6128 68.4661 49.4257 70.7025 49.4257Z" stroke="#1974F8" stroke-width="2.18487" stroke-linecap="round" stroke-linejoin="round"/>
</g>
</g>
<g filter="url(#filter1_b_601_9776)">
<rect width="57.1429" height="57.1429" rx="28.5714" transform="matrix(-1 0 0 1 108.018 52.3153)" fill="url(#paint2_radial_601_9776)" fill-opacity="0.1"/>
<path d="M86.6714 72.3949C89.5846 74.4195 91.5946 77.6386 92.0025 81.3528" stroke="white" stroke-width="2.18487" stroke-linecap="round" stroke-linejoin="round"/>
<path d="M67.0513 81.4257C67.43 77.726 69.4109 74.5069 72.295 72.4677" stroke="white" stroke-width="2.18487" stroke-linecap="round" stroke-linejoin="round"/>
<path d="M73.8971 93.9086C75.5867 94.768 77.5094 95.2487 79.5341 95.2487C81.4859 95.2487 83.3212 94.8117 84.9671 94.0106" stroke="white" stroke-width="2.18487" stroke-linecap="round" stroke-linejoin="round"/>
<path d="M79.5342 74.6234C81.7705 74.6234 83.5835 72.8105 83.5835 70.5741C83.5835 68.3378 81.7705 66.5248 79.5342 66.5248C77.2978 66.5248 75.4849 68.3378 75.4849 70.5741C75.4849 72.8105 77.2978 74.6234 79.5342 74.6234Z" stroke="white" stroke-width="2.18487" stroke-linecap="round" stroke-linejoin="round"/>
<path d="M69.0032 92.4229C71.2395 92.4229 73.0525 90.61 73.0525 88.3736C73.0525 86.1372 71.2395 84.3243 69.0032 84.3243C66.7668 84.3243 64.9539 86.1372 64.9539 88.3736C64.9539 90.61 66.7668 92.4229 69.0032 92.4229Z" stroke="#78ED5F" stroke-width="2.18487" stroke-linecap="round" stroke-linejoin="round"/>
<path d="M89.8905 92.4229C92.1269 92.4229 93.9398 90.61 93.9398 88.3736C93.9398 86.1372 92.1269 84.3243 89.8905 84.3243C87.6541 84.3243 85.8412 86.1372 85.8412 88.3736C85.8412 90.61 87.6541 92.4229 89.8905 92.4229Z" stroke="#1974F8" stroke-width="2.18487" stroke-linecap="round" stroke-linejoin="round"/>
</g>
</g>
<path d="M0 82L30 82" stroke="#D3C5C8" stroke-width="0.4"/>
<path d="M80 172L80 130" stroke="#D3C5C8" stroke-width="0.4"/>
<path d="M80 32L80 0" stroke="#D3C5C8" stroke-width="0.4"/>
<defs>
<filter id="filter0_dd_601_9776" x="44.8243" y="47.3651" width="68.744" height="68.9279" filterUnits="userSpaceOnUse" color-interpolation-filters="sRGB">
<feFlood flood-opacity="0" result="BackgroundImageFix"/>
<feColorMatrix in="SourceAlpha" type="matrix" values="0 0 0 0 0 0 0 0 0 0 0 0 0 0 0 0 0 0 127 0" result="hardAlpha"/>
<feOffset/>
<feComposite in2="hardAlpha" operator="out"/>
<feColorMatrix type="matrix" values="0 0 0 0 0 0 0 0 0 0 0 0 0 0 0 0 0 0 0.25 0"/>
<feBlend mode="normal" in2="BackgroundImageFix" result="effect1_dropShadow_601_9776"/>
<feColorMatrix in="SourceAlpha" type="matrix" values="0 0 0 0 0 0 0 0 0 0 0 0 0 0 0 0 0 0 127 0" result="hardAlpha"/>
<feOffset dy="0.376648"/>
<feGaussianBlur stdDeviation="0.376648"/>
<feComposite in2="hardAlpha" operator="out"/>
<feColorMatrix type="matrix" values="0 0 0 0 0 0 0 0 0 0 0 0 0 0 0 0 0 0 0.25 0"/>
<feBlend mode="normal" in2="effect1_dropShadow_601_9776" result="effect2_dropShadow_601_9776"/>
<feBlend mode="normal" in="SourceGraphic" in2="effect2_dropShadow_601_9776" result="shape"/>
</filter>
<filter id="filter1_b_601_9776" x="48.6345" y="50.0744" width="61.6246" height="61.6246" filterUnits="userSpaceOnUse" color-interpolation-filters="sRGB">
<feFlood flood-opacity="0" result="BackgroundImageFix"/>
<feGaussianBlur in="BackgroundImageFix" stdDeviation="1.12045"/>
<feComposite in2="SourceAlpha" operator="in" result="effect1_backgroundBlur_601_9776"/>
<feBlend mode="normal" in="SourceGraphic" in2="effect1_backgroundBlur_601_9776" result="shape"/>
</filter>
<linearGradient id="paint0_linear_601_9776" x1="102.699" y1="104.645" x2="55.5587" y2="57.5047" gradientUnits="userSpaceOnUse">
<stop stop-color="#3D292D"/>
<stop offset="1" stop-color="#3D292D" stop-opacity="0"/>
</linearGradient>
<linearGradient id="paint1_linear_601_9776" x1="33.3333" y1="0" x2="33.3333" y2="66.6667" gradientUnits="userSpaceOnUse">
<stop stop-color="white" stop-opacity="0"/>
<stop offset="1" stop-color="white"/>
</linearGradient>
<radialGradient id="paint2_radial_601_9776" cx="0" cy="0" r="1" gradientUnits="userSpaceOnUse" gradientTransform="translate(31.6527 19.888) rotate(95.2375) scale(33.7544 77.8104)">
<stop stop-color="#ECFCE8"/>
<stop offset="1" stop-color="#ECFCE8" stop-opacity="0"/>
</radialGradient>
</defs>
</svg>
