<svg width="23" height="25" viewBox="0 0 23 25" fill="none" xmlns="http://www.w3.org/2000/svg">
<path d="M6.37481 7.50964C6.37481 7.34388 6.30896 7.18491 6.19175 7.0677C6.07454 6.95049 5.91557 6.88464 5.74981 6.88464C5.58405 6.88464 5.42508 6.95049 5.30787 7.0677C5.19066 7.18491 5.12481 7.34388 5.12481 7.50964V18.5009L3.69231 17.0671C3.57495 16.9498 3.41578 16.8839 3.24981 16.8839C3.08384 16.8839 2.92467 16.9498 2.80731 17.0671C2.68995 17.1845 2.62402 17.3437 2.62402 17.5096C2.62402 17.6756 2.68995 17.8348 2.80731 17.9521L5.30731 20.4509L5.31606 20.4596C5.43341 20.5741 5.59121 20.6375 5.75511 20.6361C5.919 20.6347 6.0757 20.5686 6.19106 20.4521L8.69106 17.9521C8.74917 17.8941 8.79528 17.8252 8.82676 17.7494C8.85824 17.6735 8.87448 17.5922 8.87454 17.5101C8.87459 17.428 8.85848 17.3466 8.8271 17.2707C8.79573 17.1948 8.74972 17.1259 8.69169 17.0678C8.63366 17.0097 8.56475 16.9635 8.48891 16.9321C8.41306 16.9006 8.33175 16.8844 8.24963 16.8843C8.16751 16.8842 8.08618 16.9004 8.01029 16.9317C7.93439 16.9631 7.86542 17.0091 7.80731 17.0671L6.37481 18.5009V7.50964ZM10.7498 8.75964C10.7498 8.59388 10.8157 8.43491 10.9329 8.3177C11.0501 8.20049 11.2091 8.13464 11.3748 8.13464H20.1248C20.2906 8.13464 20.4495 8.20049 20.5668 8.3177C20.684 8.43491 20.7498 8.59388 20.7498 8.75964C20.7498 8.9254 20.684 9.08437 20.5668 9.20159C20.4495 9.3188 20.2906 9.38464 20.1248 9.38464H11.3748C11.2091 9.38464 11.0501 9.3188 10.9329 9.20159C10.8157 9.08437 10.7498 8.9254 10.7498 8.75964ZM11.3748 11.8846C11.2091 11.8846 11.0501 11.9505 10.9329 12.0677C10.8157 12.1849 10.7498 12.3439 10.7498 12.5096C10.7498 12.6754 10.8157 12.8344 10.9329 12.9516C11.0501 13.0688 11.2091 13.1346 11.3748 13.1346H17.6248C17.7906 13.1346 17.9495 13.0688 18.0668 12.9516C18.184 12.8344 18.2498 12.6754 18.2498 12.5096C18.2498 12.3439 18.184 12.1849 18.0668 12.0677C17.9495 11.9505 17.7906 11.8846 17.6248 11.8846H11.3748ZM11.3748 15.6346C11.2091 15.6346 11.0501 15.7005 10.9329 15.8177C10.8157 15.9349 10.7498 16.0939 10.7498 16.2596C10.7498 16.4254 10.8157 16.5844 10.9329 16.7016C11.0501 16.8188 11.2091 16.8846 11.3748 16.8846H15.1248C15.2906 16.8846 15.4495 16.8188 15.5668 16.7016C15.684 16.5844 15.7498 16.4254 15.7498 16.2596C15.7498 16.0939 15.684 15.9349 15.5668 15.8177C15.4495 15.7005 15.2906 15.6346 15.1248 15.6346H11.3748ZM11.3748 19.3846C11.2091 19.3846 11.0501 19.4505 10.9329 19.5677C10.8157 19.6849 10.7498 19.8439 10.7498 20.0096C10.7498 20.1754 10.8157 20.3344 10.9329 20.4516C11.0501 20.5688 11.2091 20.6346 11.3748 20.6346H12.6248C12.7906 20.6346 12.9495 20.5688 13.0668 20.4516C13.184 20.3344 13.2498 20.1754 13.2498 20.0096C13.2498 19.8439 13.184 19.6849 13.0668 19.5677C12.9495 19.4505 12.7906 19.3846 12.6248 19.3846H11.3748Z" fill="#BFA6AC"/>
<rect x="15" y="1.38464" width="7" height="7" rx="3.5" fill="#FD2654"/>
<rect x="15" y="1.38464" width="7" height="7" rx="3.5" stroke="white"/>
</svg>
