<svg width="23" height="22" viewBox="0 0 23 22" fill="none" xmlns="http://www.w3.org/2000/svg">
<path d="M4.37481 5.125C4.37481 4.95924 4.30896 4.80027 4.19175 4.68306C4.07454 4.56585 3.91557 4.5 3.74981 4.5C3.58405 4.5 3.42508 4.56585 3.30787 4.68306C3.19066 4.80027 3.12481 4.95924 3.12481 5.125V16.1163L1.69231 14.6825C1.57495 14.5651 1.41578 14.4992 1.24981 14.4992C1.08384 14.4992 0.924671 14.5651 0.807313 14.6825C0.689955 14.7999 0.624023 14.959 0.624023 15.125C0.624023 15.291 0.689955 15.4501 0.807313 15.5675L3.30731 18.0662L3.31606 18.075C3.43341 18.1894 3.59121 18.2528 3.75511 18.2514C3.919 18.25 4.0757 18.1839 4.19106 18.0675L6.69106 15.5675C6.74917 15.5095 6.79528 15.4406 6.82676 15.3647C6.85824 15.2889 6.87448 15.2076 6.87454 15.1254C6.87459 15.0433 6.85848 14.962 6.8271 14.8861C6.79573 14.8102 6.74972 14.7412 6.69169 14.6831C6.63366 14.625 6.56475 14.5789 6.48891 14.5474C6.41306 14.5159 6.33175 14.4997 6.24963 14.4997C6.16751 14.4996 6.08618 14.5157 6.01029 14.5471C5.93439 14.5785 5.86542 14.6245 5.80731 14.6825L4.37481 16.1163V5.125ZM8.74981 6.375C8.74981 6.20924 8.81566 6.05027 8.93287 5.93306C9.05008 5.81585 9.20905 5.75 9.37481 5.75H18.1248C18.2906 5.75 18.4495 5.81585 18.5668 5.93306C18.684 6.05027 18.7498 6.20924 18.7498 6.375C18.7498 6.54076 18.684 6.69973 18.5668 6.81694C18.4495 6.93415 18.2906 7 18.1248 7H9.37481C9.20905 7 9.05008 6.93415 8.93287 6.81694C8.81566 6.69973 8.74981 6.54076 8.74981 6.375ZM9.37481 9.5C9.20905 9.5 9.05008 9.56585 8.93287 9.68306C8.81566 9.80027 8.74981 9.95924 8.74981 10.125C8.74981 10.2908 8.81566 10.4497 8.93287 10.5669C9.05008 10.6842 9.20905 10.75 9.37481 10.75H15.6248C15.7906 10.75 15.9495 10.6842 16.0668 10.5669C16.184 10.4497 16.2498 10.2908 16.2498 10.125C16.2498 9.95924 16.184 9.80027 16.0668 9.68306C15.9495 9.56585 15.7906 9.5 15.6248 9.5H9.37481ZM9.37481 13.25C9.20905 13.25 9.05008 13.3158 8.93287 13.4331C8.81566 13.5503 8.74981 13.7092 8.74981 13.875C8.74981 14.0408 8.81566 14.1997 8.93287 14.3169C9.05008 14.4342 9.20905 14.5 9.37481 14.5H13.1248C13.2906 14.5 13.4495 14.4342 13.5668 14.3169C13.684 14.1997 13.7498 14.0408 13.7498 13.875C13.7498 13.7092 13.684 13.5503 13.5668 13.4331C13.4495 13.3158 13.2906 13.25 13.1248 13.25H9.37481ZM9.37481 17C9.20905 17 9.05008 17.0658 8.93287 17.1831C8.81566 17.3003 8.74981 17.4592 8.74981 17.625C8.74981 17.7908 8.81566 17.9497 8.93287 18.0669C9.05008 18.1842 9.20905 18.25 9.37481 18.25H10.6248C10.7906 18.25 10.9495 18.1842 11.0668 18.0669C11.184 17.9497 11.2498 17.7908 11.2498 17.625C11.2498 17.4592 11.184 17.3003 11.0668 17.1831C10.9495 17.0658 10.7906 17 10.6248 17H9.37481Z" fill="#5C3D44"/>
<rect x="15" y="1" width="7" height="7" rx="3.5" fill="#BB022A"/>
<rect x="15" y="1" width="7" height="7" rx="3.5" stroke="white"/>
</svg>
