<svg width="37" height="24" viewBox="0 0 37 24" fill="none" xmlns="http://www.w3.org/2000/svg">
<path opacity="0.6" fill-rule="evenodd" clip-rule="evenodd" d="M35.6279 17.2385C34.8803 15.4868 33.7478 14.2315 32.2304 13.4728C33.5804 12.9372 34.6181 12.1283 35.3433 11.046C36.0797 9.96374 36.4479 8.66946 36.4479 7.16318C36.4479 4.93166 35.6892 3.17992 34.1718 1.90795C32.6655 0.635983 30.5567 0 27.8454 0H16.3643V5.45197L21.3015 7.91775V4.05021H27.7785C28.9389 4.05021 29.8203 4.34589 30.4228 4.93724C31.0365 5.52859 31.3433 6.38773 31.3433 7.51464C31.3433 8.66388 31.0365 9.53975 30.4228 10.1423C29.8203 10.7448 28.9389 11.046 27.7785 11.046H26.7167V14.8452H26.8747C28.6265 14.8452 29.8817 15.5593 30.6404 16.9874C31.3991 18.4045 31.8622 20.742 32.0295 24H37.0002C36.844 21.2329 36.3866 18.9791 35.6279 17.2385ZM16.3643 10.6452L21.3276 13.3336L16.3643 15.5739V10.6452ZM16.3643 20.8463V24H21.3015V18.5565L16.3643 20.8463Z" fill="#BB022A"/>
<path fill-rule="evenodd" clip-rule="evenodd" d="M2.03254 17.2385C2.7801 15.4868 3.9126 14.2315 5.43003 13.4728C4.07996 12.9372 3.0423 12.1283 2.31706 11.046C1.58066 9.96374 1.21246 8.66946 1.21246 7.16318C1.21246 4.93166 1.97117 3.17992 3.48861 1.90795C4.99488 0.635983 7.10367 0 9.81497 0H21.2961V7.91507L16.3589 5.44929V4.05021H9.88191C8.72152 4.05021 7.84007 4.34589 7.23756 4.93724C6.62389 5.52859 6.31706 6.38773 6.31706 7.51464C6.31706 8.66388 6.62389 9.53975 7.23756 10.1423C7.84007 10.7448 8.72152 11.046 9.88191 11.046H16.3589V10.6423L21.2961 13.3165V13.3478L16.3589 15.5763V14.8452H10.7857C9.03394 14.8452 7.77871 15.5593 7.01999 16.9874C6.26127 18.4045 5.79823 20.742 5.63087 24H0.660156C0.816363 21.2329 1.27382 18.9791 2.03254 17.2385ZM16.3589 20.8488V24H21.2961V18.5589L16.3589 20.8488Z" fill="#BB022A"/>
</svg>
