<svg width="101" height="100" viewBox="0 0 101 100" fill="none" xmlns="http://www.w3.org/2000/svg">
<rect x="1" y="0.5" width="99" height="99" rx="17.5" fill="#1F1417" stroke="#1F1417"/>
<rect x="11" y="10.5" width="79" height="79" rx="11.5" fill="#121212" stroke="#3D292D"/>
<path d="M62.5837 50.4997V56.5413C62.5837 60.1663 60.167 62.583 56.542 62.583H44.4587C40.8337 62.583 38.417 60.1663 38.417 56.5413V50.4997C38.417 47.213 40.3987 44.9172 43.4799 44.5305C43.7941 44.4822 44.1203 44.458 44.4587 44.458H56.542C56.8562 44.458 57.1582 44.4701 57.4482 44.5184C60.5657 44.8809 62.5837 47.1888 62.5837 50.4997Z" stroke="#BFA6AC" stroke-width="1.5" stroke-linecap="round" stroke-linejoin="round"/>
<path d="M57.4498 44.5191C57.1598 44.4707 56.8577 44.4587 56.5435 44.4587H44.4602C44.1219 44.4587 43.7956 44.4828 43.4814 44.5312C43.6506 44.1928 43.8923 43.8787 44.1823 43.5887L48.1094 39.6495C49.7648 38.0062 52.4473 38.0062 54.1027 39.6495L56.2173 41.7883C56.9906 42.5495 57.4014 43.5162 57.4498 44.5191Z" fill="#BFA6AC" stroke="#BFA6AC" stroke-width="1.5" stroke-linecap="round" stroke-linejoin="round"/>
<path d="M62.5837 51.1045H58.9587C57.6295 51.1045 56.542 52.192 56.542 53.5212C56.542 54.8503 57.6295 55.9378 58.9587 55.9378H62.5837" fill="#BFA6AC"/>
<path d="M62.5837 51.1045H58.9587C57.6295 51.1045 56.542 52.192 56.542 53.5212C56.542 54.8503 57.6295 55.9378 58.9587 55.9378H62.5837" stroke="#BFA6AC" stroke-width="1.5" stroke-linecap="round" stroke-linejoin="round"/>
</svg>
