<svg width="100" height="100" viewBox="0 0 100 100" fill="none" xmlns="http://www.w3.org/2000/svg">
<rect x="0.5" y="0.5" width="99" height="99" rx="17.5" fill="#F6F4F4" stroke="#F6F4F4"/>
<rect x="10.5" y="10.5" width="79" height="79" rx="11.5" fill="white" stroke="#D3C5C8"/>
<path d="M62.0837 50.4997V56.5413C62.0837 60.1663 59.667 62.583 56.042 62.583H43.9587C40.3337 62.583 37.917 60.1663 37.917 56.5413V50.4997C37.917 47.213 39.8987 44.9172 42.9799 44.5305C43.2941 44.4822 43.6203 44.458 43.9587 44.458H56.042C56.3562 44.458 56.6582 44.4701 56.9482 44.5184C60.0657 44.8809 62.0837 47.1888 62.0837 50.4997Z" stroke="#292D32" stroke-width="1.5" stroke-linecap="round" stroke-linejoin="round"/>
<path d="M56.9498 44.5191C56.6598 44.4707 56.3577 44.4587 56.0435 44.4587H43.9602C43.6219 44.4587 43.2956 44.4828 42.9814 44.5312C43.1506 44.1928 43.3923 43.8787 43.6823 43.5887L47.6094 39.6495C49.2648 38.0062 51.9473 38.0062 53.6027 39.6495L55.7173 41.7883C56.4906 42.5495 56.9014 43.5162 56.9498 44.5191Z" stroke="#292D32" stroke-width="1.5" stroke-linecap="round" stroke-linejoin="round"/>
<path d="M62.0837 51.1045H58.4587C57.1295 51.1045 56.042 52.192 56.042 53.5212C56.042 54.8503 57.1295 55.9378 58.4587 55.9378H62.0837" stroke="#292D32" stroke-width="1.5" stroke-linecap="round" stroke-linejoin="round"/>
</svg>
