<svg width="24" height="24" viewBox="0 0 24 24" fill="none" xmlns="http://www.w3.org/2000/svg">
<g clip-path="url(#clip0_84_8180)">
<path d="M3.29433 9.75249C2.77121 9.00062 2.56121 8.29186 3.07308 7.86249C3.50621 7.49874 4.14371 7.42936 4.93121 8.33874C4.93121 8.33874 7.28433 11.0725 8.09433 11.8319C8.27808 12.0025 8.50683 12.0287 8.71496 11.8131C8.89121 11.6294 8.82746 11.47 8.67746 11.2506C8.67746 11.2506 5.36058 6.31936 4.92559 5.71749C4.19996 4.71061 4.47934 4.05999 4.81496 3.75062C5.28184 3.31749 6.10308 3.23124 6.86621 4.27749L10.8825 9.65312C11.0043 9.78249 11.2012 9.80124 11.3456 9.69999L11.4018 9.66061C11.55 9.55561 11.5931 9.35499 11.5031 9.19749C10.8 7.97311 8.00246 3.09437 7.59184 2.20562C7.11934 1.17999 7.32184 0.65874 7.82246 0.356865C8.41684 -0.00126004 8.97558 0.0249901 9.64309 1.01687C10.3668 2.09687 13.1775 6.64374 13.8918 7.86624C13.9856 8.02561 14.1862 8.08562 14.3512 8.00499C14.3531 8.00311 14.3568 8.00311 14.3587 8.00124C14.5162 7.92437 14.6587 7.76874 14.5931 7.54749C14.2031 6.26124 12.2887 2.25624 11.8875 1.33562C11.3381 0.0774903 11.6062 -0.35001 12.1743 -0.63876C12.7706 -0.940635 13.3912 -0.70251 13.8131 0.13749C14.0981 0.70749 19.1025 9.81436 19.1025 9.81436C19.0293 8.45686 19.3725 7.49499 19.665 6.52937C20.1975 4.77249 21.4856 3.85936 22.4193 4.26999C22.905 4.48374 22.9931 4.90937 22.9406 5.23562C22.8356 5.86937 22.3893 7.83249 22.3031 9.36999C22.1006 12.9737 23.19 17.1269 19.1306 19.7369C16.4137 21.4844 13.5018 21.1769 11.5781 19.8325C9.24558 18.2031 3.72183 10.3675 3.29433 9.75249Z" fill="#FFCA28"/>
<path d="M22.065 7.70688C21.7256 9.13375 21.6806 10.885 21.6918 11.6313C21.7368 14.5394 21.7218 17.0556 18.8062 19.3544C18.4481 19.6375 17.325 20.3275 16.0181 20.6875C15.5981 20.8019 15.7575 20.9369 16.0162 20.9069C17.4431 20.7419 18.525 20.1269 19.1268 19.7388C23.1843 17.1288 22.1868 13.0038 22.3893 9.4C22.4756 7.8625 22.9443 5.44375 22.9368 5.23563C22.9275 5.0275 22.4043 6.28 22.065 7.70688ZM14.5368 7.85688C14.5368 7.85688 14.2462 7.85875 13.9706 7.47438C13.1437 6.325 10.5506 1.98438 9.80435 0.919378C8.9531 -0.295622 8.15997 0.169378 7.97997 0.266878C7.97997 0.266878 8.63247 0.289378 8.99247 0.823753C9.72747 1.91313 12.5137 6.79563 13.3931 7.84375C13.9612 8.52063 14.5368 7.85688 14.5368 7.85688ZM4.2581 8.22625C4.5131 8.5 6.75185 11.1569 7.57685 11.8975C8.2856 12.5331 8.81435 11.7231 8.81435 11.7231C8.81435 11.7231 8.55372 11.7588 8.19747 11.4906C7.31247 10.8213 5.21622 8.43438 4.74372 7.93188C4.04247 7.18563 3.38997 7.6525 3.25122 7.73688C3.2531 7.73688 3.65435 7.58125 4.2581 8.22625ZM11.5481 9.48625C11.5481 9.48625 11.3081 9.66063 10.8675 9.145C10.5468 8.76813 6.86622 4.2775 6.86622 4.2775C5.94372 3.15063 5.2181 3.48625 5.0681 3.5725C5.0681 3.5725 5.53122 3.54813 6.0731 4.1725C6.3206 4.4575 10.2487 9.46563 10.4062 9.63625C10.9818 10.2644 11.5143 9.72438 11.5481 9.48625Z" fill="#EDA600"/>
<path d="M19.0875 8.84311C19.0875 8.84311 14.2106 0.666239 13.8994 0.109364C13.2075 -1.12626 12.4031 -0.747511 12.2662 -0.685636C12.2662 -0.685636 12.7144 -0.813136 13.2412 0.0831141C13.5225 0.559364 17.1056 7.00186 18.2494 9.06062C18.3394 9.44499 18.3319 9.94561 18.0431 10.2681C17.0081 11.4287 15.6881 12.6137 16.0762 15.5519C16.1737 16.2962 16.4494 17.0012 16.6537 17.3406C16.9125 17.7662 17.2106 17.605 17.0794 17.2862C16.9912 17.0706 16.8506 16.5625 16.8225 16.345C16.6912 15.3325 16.2487 13.5625 18.2325 11.44C18.5681 11.0856 19.4212 10.015 19.0875 8.84311Z" fill="#EDA600"/>
<path d="M19.4043 3.80501C19.1437 2.88064 18.7387 2.03314 18.2137 1.29814C17.7412 0.636265 17.1693 0.066265 16.5168 -0.391235C16.4343 -0.44936 16.3293 -0.62936 16.4193 -0.803735C16.5093 -0.97811 16.7043 -0.95561 16.7774 -0.92561C17.5931 -0.589985 18.2606 -0.0106098 18.8118 0.78439C19.4662 1.72939 19.7906 2.62002 19.9574 3.61564C19.9762 3.72439 19.9724 3.95314 19.7399 4.01314C19.5093 4.07314 19.4306 3.89501 19.4043 3.80501ZM18.1293 4.79689C17.8687 3.87251 17.4637 3.02501 16.9387 2.29001C16.4662 1.62814 15.8943 1.05814 15.2418 0.60064C15.1593 0.542515 15.0543 0.362515 15.1443 0.18814C15.2343 0.01189 15.4293 0.0362651 15.5024 0.0662651C16.3181 0.40189 16.9856 0.981265 17.5368 1.77626C18.1912 2.72126 18.5156 3.61189 18.6824 4.60752C18.7012 4.71627 18.6974 4.94501 18.4649 5.00501C18.2362 5.06501 18.1556 4.88876 18.1293 4.79689ZM1.60494 12.5238C1.92744 13.4294 2.38682 14.2469 2.95869 14.9463C3.47432 15.5744 4.08182 16.1069 4.76244 16.5213C4.84869 16.5738 4.96494 16.7463 4.88619 16.9263C4.80744 17.1081 4.61244 17.0969 4.53557 17.0725C3.69932 16.7913 2.99432 16.2569 2.39244 15.4994C1.67807 14.5994 1.29369 13.7331 1.06119 12.7506C1.03494 12.6419 1.02369 12.415 1.25244 12.34C1.48119 12.265 1.57307 12.4356 1.60494 12.5238ZM2.81057 11.4494C3.13307 12.355 3.59244 13.1725 4.16431 13.8719C4.67994 14.5 5.28744 15.0325 5.96807 15.4469C6.05432 15.4994 6.17057 15.6719 6.09182 15.8519C6.01307 16.0338 5.81807 16.0225 5.74119 15.9981C4.90494 15.7169 4.19994 15.1825 3.59807 14.425C2.88369 13.525 2.49932 12.6588 2.26682 11.6763C2.24057 11.5675 2.22932 11.3406 2.45807 11.2656C2.68682 11.1888 2.77869 11.3613 2.81057 11.4494Z" fill="#B0BEC5"/>
</g>
<defs>
<clipPath id="clip0_84_8180">
<rect width="24" height="24" fill="white"/>
</clipPath>
</defs>
</svg>
