<svg width="20" height="20" viewBox="0 0 20 20" fill="none" xmlns="http://www.w3.org/2000/svg">
<path d="M11.2502 6.66667H10.0002V10.8333L13.5668 12.95L14.1668 11.9417L11.2502 10.2083V6.66667ZM10.8335 2.5C8.84437 2.5 6.93672 3.29018 5.53019 4.6967C4.12367 6.10322 3.3335 8.01088 3.3335 10H0.833496L4.1335 13.3583L7.50016 10H5.00016C5.00016 8.4529 5.61474 6.96917 6.70871 5.87521C7.80267 4.78125 9.2864 4.16667 10.8335 4.16667C12.3806 4.16667 13.8643 4.78125 14.9583 5.87521C16.0522 6.96917 16.6668 8.4529 16.6668 10C16.6668 11.5471 16.0522 13.0308 14.9583 14.1248C13.8643 15.2188 12.3806 15.8333 10.8335 15.8333C9.22516 15.8333 7.76683 15.175 6.71683 14.1167L5.5335 15.3C6.22639 16.0005 7.05198 16.5559 7.96199 16.9336C8.87201 17.3114 9.8482 17.5039 10.8335 17.5C12.8226 17.5 14.7303 16.7098 16.1368 15.3033C17.5433 13.8968 18.3335 11.9891 18.3335 10C18.3335 8.01088 17.5433 6.10322 16.1368 4.6967C14.7303 3.29018 12.8226 2.5 10.8335 2.5Z" fill="white"/>
</svg>
