<svg width="20" height="20" viewBox="0 0 20 20" fill="none" xmlns="http://www.w3.org/2000/svg">
<path d="M7.74999 3.75L10.25 1.75M7.74999 3.75L10.25 5.75M7.74999 3.75H10C10.8474 3.75 11.6555 3.91866 12.3924 4.22425C13.1563 4.54102 13.8438 5.00492 14.4194 5.5806C14.9951 6.15626 15.459 6.84368 15.7757 7.60754C16.0813 8.34447 16.25 9.15254 16.25 10C16.25 10.8475 16.0813 11.6555 15.7757 12.3924M12.25 16.25L9.74999 18.25M12.25 16.25L9.74999 14.25M12.25 16.25H10C9.15257 16.25 8.34453 16.0813 7.60762 15.7758C6.84373 15.459 6.15628 14.9951 5.5806 14.4194C5.0049 13.8437 4.54099 13.1563 4.22422 12.3923C3.91865 11.6554 3.75 10.8474 3.75 10C3.75 9.15258 3.91865 8.34455 4.22422 7.60765" stroke="black" stroke-width="1.5" stroke-linecap="round" stroke-linejoin="round"/>
</svg>
