<svg width="24" height="24" viewBox="0 0 24 24" fill="none" xmlns="http://www.w3.org/2000/svg">
<path opacity="0.4" d="M16.1898 2H7.81978C4.17978 2 2.00977 4.17 2.00977 7.81V16.18C2.00977 19.82 4.17978 21.99 7.81978 21.99H16.1898C19.8298 21.99 21.9998 19.82 21.9998 16.18V7.81C21.9998 4.17 19.8298 2 16.1898 2Z" fill="#AD858D"/>
<path d="M9.1696 14.09C9.3596 14.09 9.5496 14.02 9.6996 13.87L14.0796 9.49V11.92C14.0796 12.33 14.4196 12.67 14.8296 12.67C15.2396 12.67 15.5796 12.33 15.5796 11.92V7.68C15.5796 7.58 15.5596 7.49 15.5196 7.39C15.4396 7.21 15.2996 7.06 15.1096 6.98C15.0196 6.94 14.9196 6.92 14.8196 6.92H10.5796C10.1696 6.92 9.82961 7.26 9.82961 7.67C9.82961 8.08 10.1696 8.42 10.5796 8.42H13.0096L8.62961 12.8C8.33961 13.09 8.33961 13.57 8.62961 13.86C8.78961 14.02 8.9796 14.09 9.1696 14.09Z" fill="#AD858D"/>
<path d="M18.7097 16.28C18.5797 15.89 18.1597 15.68 17.7597 15.81C14.0397 17.05 9.94969 17.05 6.22969 15.81C5.83969 15.68 5.40969 15.89 5.27969 16.28C5.14969 16.67 5.35969 17.1 5.74969 17.23C7.75969 17.9 9.8697 18.24 11.9897 18.24C14.1097 18.24 16.2197 17.9 18.2297 17.23C18.6297 17.09 18.8397 16.67 18.7097 16.28Z" fill="#AD858D"/>
</svg>
