<svg width="24" height="24" viewBox="0 0 24 24" fill="none" xmlns="http://www.w3.org/2000/svg">
<path opacity="0.4" d="M16.19 2H7.82001C4.18001 2 2.00999 4.17 2.00999 7.81V16.18C2.00999 19.82 4.18001 21.99 7.82001 21.99H16.19C19.83 21.99 22 19.82 22 16.18V7.81C22 4.17 19.83 2 16.19 2Z" fill="#996671"/>
<path d="M9.17 14.09C9.36 14.09 9.55 14.02 9.7 13.87L14.08 9.49V11.92C14.08 12.33 14.42 12.67 14.83 12.67C15.24 12.67 15.58 12.33 15.58 11.92V7.68C15.58 7.58 15.56 7.49 15.52 7.39C15.44 7.21 15.3 7.06 15.11 6.98C15.02 6.94 14.92 6.92 14.82 6.92H10.58C10.17 6.92 9.83 7.26 9.83 7.67C9.83 8.08 10.17 8.42 10.58 8.42H13.01L8.63001 12.8C8.34001 13.09 8.34001 13.57 8.63001 13.86C8.79001 14.02 8.98 14.09 9.17 14.09Z" fill="#292D32"/>
<path d="M18.71 16.28C18.58 15.89 18.16 15.68 17.76 15.81C14.04 17.05 9.94999 17.05 6.22999 15.81C5.83999 15.68 5.41 15.89 5.28 16.28C5.15 16.67 5.36 17.1 5.75 17.23C7.76 17.9 9.87 18.24 11.99 18.24C14.11 18.24 16.22 17.9 18.23 17.23C18.63 17.09 18.84 16.67 18.71 16.28Z" fill="#292D32"/>
</svg>
