<svg width="24" height="24" viewBox="0 0 24 24" fill="none" xmlns="http://www.w3.org/2000/svg">
<path d="M16.734 6.03279L7.27273 10.7634M7.27273 13.2365L16.704 17.9522M7.49961 12C7.49961 13.4911 6.29078 14.7 4.79961 14.7C3.30844 14.7 2.09961 13.4911 2.09961 12C2.09961 10.5088 3.30844 9.29998 4.79961 9.29998C6.29078 9.29998 7.49961 10.5088 7.49961 12ZM21.8996 4.79998C21.8996 6.29114 20.6908 7.49998 19.1996 7.49998C17.7084 7.49998 16.4996 6.29114 16.4996 4.79998C16.4996 3.30881 17.7084 2.09998 19.1996 2.09998C20.6908 2.09998 21.8996 3.30881 21.8996 4.79998ZM21.8996 19.2C21.8996 20.6911 20.6908 21.9 19.1996 21.9C17.7084 21.9 16.4996 20.6911 16.4996 19.2C16.4996 17.7088 17.7084 16.5 19.1996 16.5C20.6908 16.5 21.8996 17.7088 21.8996 19.2Z" stroke="#121212" stroke-width="1.5" stroke-linecap="round" stroke-linejoin="round"/>
</svg>
