<svg width="20" height="21" viewBox="0 0 20 21" fill="none" xmlns="http://www.w3.org/2000/svg">
<path d="M13.9453 5.41199L6.06094 9.35417M6.06094 11.4151L13.9203 15.3448M6.25 10.3846C6.25 11.6273 5.24264 12.6346 4 12.6346C2.75736 12.6346 1.75 11.6273 1.75 10.3846C1.75 9.142 2.75736 8.13464 4 8.13464C5.24264 8.13464 6.25 9.142 6.25 10.3846ZM18.25 4.38464C18.25 5.62728 17.2426 6.63464 16 6.63464C14.7574 6.63464 13.75 5.62728 13.75 4.38464C13.75 3.142 14.7574 2.13464 16 2.13464C17.2426 2.13464 18.25 3.142 18.25 4.38464ZM18.25 16.3846C18.25 17.6273 17.2426 18.6346 16 18.6346C14.7574 18.6346 13.75 17.6273 13.75 16.3846C13.75 15.142 14.7574 14.1346 16 14.1346C17.2426 14.1346 18.25 15.142 18.25 16.3846Z" stroke="#F6F4F4" stroke-width="1.5" stroke-linecap="round" stroke-linejoin="round"/>
</svg>
