<svg width="20" height="21" viewBox="0 0 20 21" fill="none" xmlns="http://www.w3.org/2000/svg">
<path d="M10 15.9163C12.9915 15.9163 15.4167 13.4912 15.4167 10.4997C15.4167 7.50813 12.9915 5.08301 10 5.08301C7.00845 5.08301 4.58333 7.50813 4.58333 10.4997C4.58333 13.4912 7.00845 15.9163 10 15.9163Z" stroke="#BB022A" stroke-width="1.5" stroke-linecap="round" stroke-linejoin="round"/>
<path d="M15.95 16.4503L15.8417 16.342M15.8417 4.65866L15.95 4.55033L15.8417 4.65866ZM4.05001 16.4503L4.15834 16.342L4.05001 16.4503ZM10 2.23366V2.16699V2.23366ZM10 18.8337V18.767V18.8337ZM1.73334 10.5003H1.66667H1.73334ZM18.3333 10.5003H18.2667H18.3333ZM4.15834 4.65866L4.05001 4.55033L4.15834 4.65866Z" stroke="#292D32" stroke-width="2" stroke-linecap="round" stroke-linejoin="round"/>
</svg>
