<svg width="20" height="21" viewBox="0 0 20 21" fill="none" xmlns="http://www.w3.org/2000/svg">
<path d="M10.0002 15.8014C12.9917 15.8014 15.4168 13.3762 15.4168 10.3847C15.4168 7.39314 12.9917 4.96802 10.0002 4.96802C7.00862 4.96802 4.5835 7.39314 4.5835 10.3847C4.5835 13.3762 7.00862 15.8014 10.0002 15.8014Z" stroke="#AD858D" stroke-width="1.5" stroke-linecap="round" stroke-linejoin="round"/>
<path d="M15.9498 16.3346L15.8415 16.2263M15.8415 4.54294L15.9498 4.4346L15.8415 4.54294ZM4.04984 16.3346L4.15817 16.2263L4.04984 16.3346ZM9.99984 2.11794V2.05127V2.11794ZM9.99984 18.7179V18.6513V18.7179ZM1.73317 10.3846H1.6665H1.73317ZM18.3332 10.3846H18.2665H18.3332ZM4.15817 4.54294L4.04984 4.4346L4.15817 4.54294Z" stroke="#292D32" stroke-width="2" stroke-linecap="round" stroke-linejoin="round"/>
</svg>
