<svg width="20" height="21" viewBox="0 0 20 21" fill="none" xmlns="http://www.w3.org/2000/svg">
<path d="M13 8.63464C14.7949 8.63464 16.25 7.17957 16.25 5.38464C16.25 3.58972 14.7949 2.13464 13 2.13464M13.25 12.1346H13.375C16.0674 12.1346 18.25 14.3173 18.25 17.0096C18.25 17.9071 17.5225 18.6346 16.625 18.6346H15M10.25 5.38464C10.25 7.17957 8.79493 8.63464 7 8.63464C5.20507 8.63464 3.75 7.17957 3.75 5.38464C3.75 3.58972 5.20507 2.13464 7 2.13464C8.79493 2.13464 10.25 3.58972 10.25 5.38464ZM3.375 18.6346H10.625C11.5225 18.6346 12.25 17.9071 12.25 17.0096C12.25 14.3173 10.0674 12.1346 7.375 12.1346H6.625C3.93261 12.1346 1.75 14.3173 1.75 17.0096C1.75 17.9071 2.47754 18.6346 3.375 18.6346Z" stroke="white" stroke-width="1.5" stroke-linecap="round" stroke-linejoin="round"/>
</svg>
