<svg width="24" height="24" viewBox="0 0 24 24" fill="none" xmlns="http://www.w3.org/2000/svg">
<path d="M12 12C14.7614 12 17 9.76142 17 7C17 4.23858 14.7614 2 12 2C9.23858 2 7 4.23858 7 7C7 9.76142 9.23858 12 12 12Z" fill="#FD2654"/>
<path opacity="0.4" d="M11.9999 14.5C6.98994 14.5 2.90991 17.86 2.90991 22C2.90991 22.28 3.12991 22.5 3.40991 22.5H20.59C20.87 22.5 21.09 22.28 21.09 22C21.09 17.86 17.0099 14.5 11.9999 14.5Z" fill="#FD2654"/>
<path d="M21.43 14.74C20.53 13.84 19.8201 14.13 19.2101 14.74L15.67 18.2801C15.53 18.4201 15.4 18.68 15.37 18.87L15.18 20.22C15.11 20.71 15.45 21.05 15.94 20.98L17.29 20.79C17.48 20.76 17.75 20.63 17.88 20.49L21.42 16.95C22.04 16.35 22.33 15.64 21.43 14.74Z" fill="#FD2654"/>
</svg>
