<svg width="20" height="21" viewBox="0 0 20 21" fill="none" xmlns="http://www.w3.org/2000/svg">
<path d="M13.25 7.13464C15.25 8.13464 15.25 12.6346 13.25 13.6346M15.25 4.13464C19.25 7.13464 19.25 13.6346 15.25 16.6346M9.25 4.13464V16.6346L6.8778 14.4449C6.579 14.1691 6.42961 14.0312 6.26126 13.9283C6.06049 13.8055 5.83964 13.7192 5.60886 13.6732C5.41535 13.6346 5.21203 13.6346 4.80539 13.6346C3.82147 13.6346 3.32951 13.6346 2.94462 13.4653C2.48664 13.2638 2.12081 12.898 1.91933 12.44C1.75 12.0551 1.75 11.5632 1.75 10.5793V10.19C1.75 9.20612 1.75 8.71416 1.91933 8.32927C2.12081 7.87128 2.48664 7.50545 2.94462 7.30397C3.32951 7.13464 3.82147 7.13464 4.80539 7.13464C5.21203 7.13464 5.41535 7.13464 5.60886 7.09609C5.83964 7.0501 6.06049 6.96375 6.26126 6.84101C6.42961 6.73808 6.579 6.60018 6.8778 6.32436L9.25 4.13464Z" stroke="white" stroke-width="1.5" stroke-linecap="round" stroke-linejoin="round"/>
</svg>
