<svg width="20" height="20" viewBox="0 0 20 20" fill="none" xmlns="http://www.w3.org/2000/svg">
<path d="M13.25 6.75C15.25 7.75 15.25 12.25 13.25 13.25M15.25 3.75C19.25 6.75 19.25 13.25 15.25 16.25M9.25 3.75V16.25L6.8778 14.0603C6.579 13.7845 6.42961 13.6466 6.26126 13.5436C6.06049 13.4209 5.83964 13.3345 5.60886 13.2886C5.41535 13.25 5.21203 13.25 4.80539 13.25C3.82147 13.25 3.32951 13.25 2.94462 13.0807C2.48664 12.8792 2.12081 12.5134 1.91933 12.0554C1.75 11.6705 1.75 11.1785 1.75 10.1946V9.80539C1.75 8.82147 1.75 8.32951 1.91933 7.94462C2.12081 7.48664 2.48664 7.12081 2.94462 6.91933C3.32951 6.75 3.82147 6.75 4.80539 6.75C5.21203 6.75 5.41535 6.75 5.60886 6.71144C5.83964 6.66546 6.06049 6.57911 6.26126 6.45636C6.42961 6.35344 6.579 6.21553 6.8778 5.93972L9.25 3.75Z" stroke="black" stroke-width="1.5" stroke-linecap="round" stroke-linejoin="round"/>
</svg>
