<svg width="21" height="20" viewBox="0 0 21 20" fill="none" xmlns="http://www.w3.org/2000/svg">
<path d="M11.333 7.5H6.33301" stroke="white" stroke-width="1.5" stroke-linecap="round" stroke-linejoin="round"/>
<path d="M18.8338 9.14196V10.8587C18.8338 11.317 18.4672 11.692 18.0005 11.7086H16.3672C15.4672 11.7086 14.6422 11.0503 14.5672 10.1503C14.5172 9.62531 14.7172 9.13364 15.0672 8.79197C15.3755 8.47531 15.8005 8.29199 16.2672 8.29199H18.0005C18.4672 8.30866 18.8338 8.68362 18.8338 9.14196Z" stroke="white" stroke-width="1.5" stroke-linecap="round" stroke-linejoin="round"/>
<path d="M15.067 8.79198C14.717 9.13365 14.517 9.62532 14.567 10.1503C14.642 11.0503 15.467 11.7086 16.367 11.7086H18.0003V12.917C18.0003 15.417 16.3337 17.0837 13.8337 17.0837H6.33366C3.83366 17.0837 2.16699 15.417 2.16699 12.917V7.08366C2.16699 4.81699 3.53366 3.23366 5.65866 2.96699C5.87533 2.93366 6.10033 2.91699 6.33366 2.91699H13.8337C14.0503 2.91699 14.2587 2.92532 14.4587 2.95865C16.6087 3.20865 18.0003 4.80033 18.0003 7.08366V8.292H16.267C15.8003 8.292 15.3753 8.47532 15.067 8.79198Z" stroke="white" stroke-width="1.5" stroke-linecap="round" stroke-linejoin="round"/>
</svg>
