<svg width="24" height="24" viewBox="0 0 24 24" fill="none" xmlns="http://www.w3.org/2000/svg">
<g clip-path="url(#clip0_1256_15158)">
<rect width="24" height="24" rx="12" fill="#F6F4F4"/>
<path d="M6.90724 8.34467C10.0194 5.21844 15.066 5.21844 18.1782 8.34467L18.5529 8.72077C18.5898 8.75751 18.6192 8.8015 18.6393 8.85011C18.6593 8.89873 18.6696 8.95098 18.6696 9.00377C18.6696 9.05657 18.6593 9.10882 18.6393 9.15744C18.6192 9.20605 18.5898 9.25004 18.5529 9.28678L17.2715 10.5738C17.2337 10.6114 17.1832 10.6324 17.1305 10.6324C17.0779 10.6324 17.0274 10.6114 16.9896 10.5738L16.4741 10.0559C14.3032 7.87547 10.7828 7.87547 8.61126 10.0559L8.05923 10.6103C8.02144 10.6479 7.97088 10.6689 7.91826 10.6689C7.86564 10.6689 7.81508 10.6479 7.77729 10.6103L6.49593 9.32327C6.45899 9.28653 6.42962 9.24255 6.40956 9.19394C6.3895 9.14532 6.37916 9.09307 6.37916 9.04027C6.37916 8.98748 6.3895 8.93523 6.40956 8.88661C6.42962 8.838 6.45899 8.79401 6.49593 8.75727L6.90724 8.34467ZM20.8285 11.0059L21.9686 12.1517C22.0056 12.1884 22.035 12.2324 22.055 12.281C22.0751 12.3296 22.0854 12.3819 22.0854 12.4347C22.0854 12.4875 22.0751 12.5397 22.055 12.5884C22.035 12.637 22.0056 12.681 21.9686 12.7177L16.8267 17.8826C16.7512 17.9579 16.65 18 16.5448 18C16.4395 18 16.3383 17.9579 16.2628 17.8826L12.6136 14.2168C12.5947 14.1979 12.5694 14.1873 12.543 14.1873C12.5166 14.1873 12.4912 14.1979 12.4723 14.2168L8.8231 17.8826C8.74758 17.9579 8.64644 18 8.54116 18C8.43587 18 8.33473 17.9579 8.25922 17.8826L3.11677 12.7177C3.07982 12.681 3.05045 12.637 3.03039 12.5884C3.01034 12.5397 3 12.4875 3 12.4347C3 12.3819 3.01034 12.3296 3.03039 12.281C3.05045 12.2324 3.07982 12.1884 3.11677 12.1517L4.25741 11.0059C4.33291 10.9308 4.43394 10.8888 4.5391 10.8888C4.64426 10.8888 4.74529 10.9308 4.82078 11.0059L8.47003 14.6717C8.4889 14.6907 8.51425 14.7013 8.54064 14.7013C8.56704 14.7013 8.59238 14.6907 8.61126 14.6717L12.2605 11.0059C12.336 10.9306 12.4372 10.8885 12.5424 10.8885C12.6477 10.8885 12.7489 10.9306 12.8244 11.0059L16.4741 14.6717C16.493 14.6907 16.5184 14.7013 16.5448 14.7013C16.5712 14.7013 16.5965 14.6907 16.6154 14.6717L20.2646 11.0059C20.3401 10.9306 20.4413 10.8885 20.5466 10.8885C20.6519 10.8885 20.753 10.9306 20.8285 11.0059ZM28.944 16.2163L30.3217 10.5616C30.4031 10.2495 30.4732 9.91414 30.5665 9.38728C30.6366 9.91414 30.7186 10.2495 30.7768 10.5616L31.9675 16.2163H34.4312L36.5089 7.82945H34.6173L33.4736 12.9817C33.36 13.4718 33.2705 13.9676 33.2055 14.467C33.1117 13.9042 33.0184 13.4847 32.9133 12.9933L31.8041 7.82945H29.329L28.1265 12.9933C28.0188 13.4815 27.9255 13.973 27.8466 14.467C27.7676 13.973 27.6741 13.4815 27.5662 12.9933L26.4457 7.82945H24.4726L26.539 16.2163H28.944ZM37.9192 16.4321C38.8531 16.4321 39.4484 16.0365 39.752 15.4615C39.717 15.6413 39.7056 15.8212 39.7056 16.001V16.2163H41.27V12.7537C41.27 11.1006 40.5345 10.1421 38.7366 10.1421C37.1836 10.1421 36.1682 11.0287 36.0749 12.2506H37.7913C37.8491 11.7111 38.2227 11.3884 38.7949 11.3884C39.3319 11.3884 39.6237 11.6994 39.6237 12.0591C39.6237 12.3226 39.4721 12.4781 39.0165 12.5378L38.1995 12.6341C36.9852 12.7896 35.9466 13.2451 35.9466 14.5628C35.9466 15.7609 36.9156 16.4321 37.9192 16.4321ZM38.4449 15.1981C37.9893 15.1981 37.6511 14.9346 37.6511 14.4786C37.6511 14.0359 38.0362 13.8201 38.6201 13.7122L39.017 13.6402C39.3551 13.5683 39.5422 13.5085 39.6587 13.4006V13.9518C39.6587 14.695 39.133 15.1981 38.4444 15.1981H38.4449ZM42.0833 7.82945V16.2163H43.776V7.82945H42.0833ZM44.7553 7.82945V16.2163H46.448V7.82945H44.7553ZM50.1431 16.4321C51.7543 16.4321 52.7929 15.4974 52.9099 14.2755H51.2054C51.1235 14.8145 50.6797 15.1139 50.1431 15.1139C49.4194 15.1139 48.8937 14.5151 48.8824 13.6884H52.945V13.353C52.945 11.4117 51.9059 10.1421 50.1081 10.1421C48.3803 10.1421 47.166 11.3879 47.166 13.2689C47.166 15.3054 48.4154 16.4321 50.1431 16.4321ZM48.87 12.55C48.9406 11.8793 49.4194 11.3879 50.0967 11.3879C50.7503 11.3879 51.2049 11.8549 51.2173 12.55H48.87ZM56.5277 16.3359C56.9014 16.3359 57.2633 16.2761 57.4267 16.2285V14.9098C57.2917 14.9336 57.1549 14.9457 57.0179 14.9457C56.3994 14.9457 56.1778 14.586 56.1778 13.9989V11.6989H57.555V10.3447H56.1778V8.26057H54.4964V10.3447H53.2589V11.6989H54.4964V14.239C54.4964 15.6286 55.1737 16.3359 56.5277 16.3359ZM62.2418 16.4321C64.5535 16.4321 65.9545 15.042 66.1297 13.0414H64.2968C64.1566 14.1311 63.4093 14.8743 62.3119 14.8743C61.0161 14.8743 60.1053 13.7963 60.1053 11.975C60.1053 10.1897 61.0512 9.17146 62.347 9.17146C63.4562 9.17146 64.0865 9.86653 64.2149 10.8848H66.0947C65.9076 8.80012 64.4133 7.61363 62.3588 7.61363C60.0121 7.61363 58.2142 9.24287 58.2142 11.975C58.2142 14.8024 59.7904 16.4321 62.2418 16.4321ZM69.7996 16.4321C71.5623 16.4321 72.8117 15.2938 72.8117 13.3049C72.8117 11.3519 71.5623 10.1416 69.7996 10.1416C68.0481 10.1416 66.7992 11.3519 66.7992 13.3049C66.7992 15.2938 68.0368 16.4321 69.7996 16.4321ZM69.7996 15.0901C69.0171 15.0901 68.5151 14.431 68.5151 13.3049C68.5151 12.1549 69.0408 11.5079 69.7996 11.5079C70.5701 11.5079 71.0954 12.1549 71.0954 13.3049C71.0954 14.4316 70.5815 15.0901 69.7996 15.0901ZM75.1714 16.2163V12.778C75.1714 12.047 75.6152 11.5079 76.2455 11.5079C76.8409 11.5079 77.1914 11.975 77.1914 12.7537V16.2163H78.884V12.5024C78.884 11.0885 78.1604 10.1416 76.8641 10.1416C75.9651 10.1416 75.4167 10.5849 75.125 11.1123C75.1551 10.9341 75.1707 10.7536 75.1714 10.5727V10.3453H73.4787V16.2163H75.1714ZM81.5895 16.2163V12.778C81.5895 12.047 82.0328 11.5079 82.6632 11.5079C83.259 11.5079 83.609 11.975 83.609 12.7537V16.2163H85.3017V12.5024C85.3017 11.0885 84.578 10.1416 83.2822 10.1416C82.3833 10.1416 81.8344 10.5849 81.5426 11.1123C81.5777 10.8964 81.5895 10.7288 81.5895 10.5727V10.3453H79.8963V16.2163H81.5895ZM88.9442 16.4321C90.5549 16.4321 91.594 15.4974 91.711 14.2755H90.0065C89.9246 14.8145 89.4813 15.1139 88.9442 15.1139C88.22 15.1139 87.6948 14.5151 87.6835 13.6884H91.7461V13.353C91.7461 11.4117 90.707 10.1421 88.9091 10.1421C87.1814 10.1421 85.9671 11.3879 85.9671 13.2689C85.9671 15.3054 87.2165 16.4321 88.9442 16.4321ZM87.6716 12.55C87.7417 11.8793 88.22 11.3879 88.8973 11.3879C89.5509 11.3879 90.0065 11.8549 90.0178 12.55H87.6716ZM95.3809 16.4321C97.1555 16.4321 98.1245 15.4377 98.3111 13.892H96.6184C96.5597 14.5389 96.1979 15.0901 95.4391 15.0901C94.6686 15.0901 94.1433 14.3591 94.1433 13.2811C94.1433 12.1067 94.7505 11.5079 95.4742 11.5079C96.1865 11.5079 96.5365 12.0348 96.5834 12.6458H98.2761C98.1477 11.2202 97.2019 10.1416 95.4623 10.1416C93.7697 10.1416 92.427 11.2921 92.427 13.2811C92.427 15.2457 93.5594 16.4321 95.3809 16.4321ZM101.973 16.3359C102.346 16.3359 102.708 16.2761 102.872 16.2285V14.9098C102.737 14.9336 102.6 14.9457 102.463 14.9457C101.844 14.9457 101.622 14.586 101.622 13.9989V11.6989H103V10.3447H101.622V8.26057H99.9414V10.3447H98.7039V11.6989H99.9414V14.239C99.9414 15.6286 100.618 16.3359 101.973 16.3359Z" fill="#3B99FC"/>
</g>
<defs>
<clipPath id="clip0_1256_15158">
<rect width="24" height="24" rx="12" fill="white"/>
</clipPath>
</defs>
</svg>
